<?xml version="1.0" encoding="utf-8"?>
<!-- Generator: Adobe Illustrator 26.0.1, SVG Export Plug-In . SVG Version: 6.00 Build 0)  -->
<svg version="1.1" id="Layer_1" xmlns="http://www.w3.org/2000/svg" xmlns:xlink="http://www.w3.org/1999/xlink" x="0px" y="0px"
	 viewBox="0 0 1216.82 942.34" style="enable-background:new 0 0 1216.82 942.34;" xml:space="preserve">
<style type="text/css">
	.st0{clip-path:url(#SVGID_00000164496811986220216190000003587434558559412919_);}
	.st1{fill:#FFFFFF;}
	.st2{fill:#1D1D1B;}
	.st3{fill:#DBEFF7;}
	.st4{fill-rule:evenodd;clip-rule:evenodd;fill:#6D6F71;}
	.st5{fill:#010303;}
	.st6{fill-rule:evenodd;clip-rule:evenodd;fill:#010303;}
	.st7{fill-rule:evenodd;clip-rule:evenodd;fill:#818385;}
	.st8{fill-rule:evenodd;clip-rule:evenodd;fill:#939598;}
	.st9{display:none;fill-rule:evenodd;clip-rule:evenodd;fill:#010303;}
	.st10{fill-rule:evenodd;clip-rule:evenodd;fill:#FFFFFF;}
	.st11{fill-rule:evenodd;clip-rule:evenodd;fill:#C4C4C9;}
	.st12{fill-rule:evenodd;clip-rule:evenodd;fill:#67686A;}
	.st13{fill-rule:evenodd;clip-rule:evenodd;fill:none;}
</style>
<g>
	<defs>
		<rect id="SVGID_1_" width="1216.82" height="942.34"/>
	</defs>
	<clipPath id="SVGID_00000145772206046220012070000003697618434499091362_">
		<use xlink:href="#SVGID_1_"  style="overflow:visible;"/>
	</clipPath>
	<g style="clip-path:url(#SVGID_00000145772206046220012070000003697618434499091362_);">
		<g>
			<g>
				<path class="st1" d="M259.05,597.93c-51.53,13.55-104.43,9.98-153.72-14.47C45.58,553.8,7.62,486.87,45.8,409.79
					c54.56-109.96,181.14-114.72,264.85-62.53c0.29,0.92,0.51,1.74,0.79,2.66c1.15,3.48,4.4,3.39,6.57,1.65
					c1.52,0,2.53-2.01,2.09-3.75c0.07-0.73,0-1.56-0.22-2.38C267.86,181.09,413.35,52.09,524.85,34.05
					c58.6-9.43,121.39,0.09,174.65,33.69c63.29,39.92,109.41,125.98,79.6,216.07c-1.66,5.13,4.55,9.25,7.36,5.4
					c33.85-47.7,80.54-97.05,134.66-88.07c26.34,4.39,52.97,22.8,66.32,53.01c18.98,42.66-0.94,85.14-19.41,120.76
					c-3.39,6.59,3.75,11.81,7.87,7.69c61.92-61.25,170.75-95.22,211.96,17.49c40.34,110.6-88.84,208.1-163.1,167.27
					c-1.01-1.46-1.88-2.93-2.89-4.39c-4.47-6.04-11.62,3.02-7.22,9.16c66.03,90.55-17.32,193.09-88.91,211.49
					c-74.19,19.04-151.05-11.72-207.48-73.79c-1.73-1.83-4.91-2.01-6.06,1.01c-12.2,32.23-54.2,38.18-73.83,13.92
					c-0.94-4.76-7.14-6.13-8.3-0.27c-16.89,86.88-108.54,81.94-121.67-4.12c-0.65-4.12-5.2-5.31-7.36-2.47
					c-44.67,59.51-111.57,95.12-176.67,76.72c-63.58-17.94-120.88-116.64-60.62-186.49C267.5,603.79,263.46,596.74,259.05,597.93z"
					/>
				<path class="st2" d="M25.52,427.18c44.96-135.22,190.88-151.7,282.46-89.08C261.08,171.2,408.37,37.9,524.05,19.68
					C633.53,2.47,834.73,83.31,794.1,262.66c41.57-52.73,98.29-97.23,157.4-63.72c58.09,32.87,59.83,96.68,36.81,156.46
					c36.16-31.13,78.23-51.82,122.68-43.76c42.8,7.69,80.03,46.69,92.45,99.7c26.34,112.61-95.62,201.23-172.34,166.81
					c23.02,44.04,20.21,102.54-5.41,145.84c-31.61,53.38-86.89,74.98-137.62,76.54c-32.84,0.92-65.74-6.41-96.27-21.52
					c-12.77-6.23-25.19-13.92-36.95-22.71c-6.5-4.85-26.27-29.39-33.49-29.94c-14.58-1.19-25.19,27.1-43.16,29.11
					c-16.96,1.92-30.74-7.97-40.99-23.44c-12.92,54.93-60.98,88.07-102.55,56.49c-8.8-6.59-16.24-15.29-22.16-25.91
					c-2.89-4.94-4.62-12.27-7.65-16.57c-2.89-4.12-4.19-6.77-4.69-8.51c-0.65,1.01-2.02,2.29-4.76,3.39
					c-11.55,4.94-25.84,26.55-37.02,34.79c-13.35,9.7-27.5,17.49-42.22,23.25c-55.5,21.7-128.03,14.19-166.42-47.7
					c-25.04-40.56-26.34-98.51-2.31-138.43C156.5,629.24-27.38,586.3,25.52,427.18z M310.65,347.26
					c-83.71-52.19-210.3-47.42-264.85,62.53c-38.18,77.09-0.22,144.01,59.54,173.68c49.29,24.44,102.19,28.02,153.72,14.47
					c4.4-1.19,8.44,5.86,4.69,10.16c-60.26,69.86-2.96,168.55,60.62,186.49c65.1,18.4,131.99-17.21,176.67-76.72
					c2.17-2.84,6.71-1.65,7.36,2.47c13.13,86.06,104.79,91,121.67,4.12c1.15-5.86,7.36-4.49,8.3,0.27
					c19.63,24.26,61.63,18.31,73.83-13.92c1.15-3.02,4.33-2.84,6.06-1.01c56.43,62.07,133.29,92.84,207.48,73.79
					c71.59-18.4,154.94-120.94,88.91-211.49c-4.4-6.13,2.74-15.2,7.22-9.16c1.01,1.46,1.88,2.93,2.89,4.39
					c74.26,40.83,203.44-56.67,163.1-167.27c-41.21-112.7-150.04-78.74-211.96-17.49c-4.11,4.12-11.26-1.1-7.87-7.69
					c18.47-35.61,38.39-78.1,19.41-120.76c-13.35-30.21-39.98-48.61-66.32-53.01c-54.13-8.97-100.82,40.38-134.66,88.07
					c-2.81,3.85-9.02-0.27-7.36-5.4c29.81-90.09-16.31-176.15-79.6-216.07c-53.26-33.6-116.05-43.12-174.65-33.69
					c-111.5,18.04-256.99,147.03-204.96,311.37c0.22,0.82,0.29,1.65,0.22,2.38c0.43,1.74-0.58,3.75-2.09,3.75
					c-2.17,1.74-5.41,1.83-6.57-1.65C311.16,349,310.94,348.17,310.65,347.26z"/>
			</g>
			<g>
				<path class="st3" d="M787.37,315.89c-7.23-7.75-14.53-10.09-22.02-9.83c6.56-7.1,11.98-15.94,15.94-25.64
					c4-9.79-1.8-18.65-8.62-18.86c4.69-4.15,9.43-8.18,14.23-11.97c9.92-77.09-32.2-147.02-87.41-181.84
					c-32.47-20.48-68.48-31.97-104.92-35.72C663.14,94.73,707.35,184.1,722.9,291.6c-2.16-3.36-4.69-6.34-7.47-8.75
					c-11.99-10.42-26.37-10.89-38.67-1.67c-4.41,3.31-1.53,12.43,3.52,10.59c17.15-6.25,28.84,6.19,33.53,25.96
					c1.73,7.28,1.91,13.93,7,18.96c4.41,4.36,8.94,4.8,14.38,3.2c4.14-1.22,8.43-5.8,12.11-7.95c12.18-7.15,41.51-13.68,36.7,21.25
					c-1.07,7.8,7.99,14.41,11.01,5.89C800.59,343.33,798.07,327.35,787.37,315.89z"/>
				<path class="st3" d="M1187.85,400.08c-22.72-62.13-65.99-79.64-110.62-72.62c24.2,10.6,44.53,32.58,57.46,70.26
					c33.87,98.73-66.95,153.37-137.43,168.57c10.42,84.78-55.75,150.76-113.84,188.81c-14.43,9.45-30.1,19.16-46.49,28.51
					c29.05,7.13,59.13,7.6,88.81-0.01c71.59-18.4,154.94-120.94,88.91-211.48c-4.4-6.13,2.74-15.2,7.22-9.16
					c1.01,1.46,1.88,2.93,2.89,4.39C1099.01,608.18,1228.19,510.68,1187.85,400.08z"/>
				<path class="st3" d="M987.44,254.15c-13.35-30.22-39.98-48.62-66.32-53.01c-22.38-3.71-43.45,2.64-62.91,14.63
					c14.88-1.62,29.93,0.6,45,8.07c24.39,12.09,36.97,31.16,41.75,53.65c1.58,20.05,0.69,39.04-1.45,57.91
					c-0.92,4.59-1.94,9.19-3.15,13.79c0.51-0.29,1.03-0.54,1.55-0.82c-1.47,10.68-3.23,21.49-5.02,32.46
					c-11-7.74-24.74-8.17-36.09-1.07c-4.72,2.95-1.07,10.62,3.27,9.85c10.78-1.9,21.42,2.74,28.2,13.73
					c6.99,11.33,4.49,21.67,5.06,34.7c0.47,10.74,10.39,13.31,15.13,5.2c5.35-9.17,5.13-22.15,2.02-33.94
					c13.56-23.24,25.33-48.18,32.53-75.73c0.49-1.86,0.45-3.6,0.21-5.25c0.51-0.17,1.02-0.38,1.53-0.54
					C996.27,304.2,998.59,279.21,987.44,254.15z"/>
				<path class="st3" d="M447.55,394.86c-9.78-2.35-21.54-4.4-29.76,4.44c-1.82,1.95-3.27,4.34-4.37,6.93
					c-18.52-30.65-54.25-43.29-81.77-23.61c-23.3,16.67-32.08,54-20.25,81.54c-12.97-10.13-29.36-15.28-41.95-5.28
					c-12.76,10.13-17.5,30.96-6.48,45.16c1.86,2.4,4.52-1.14,2.87-3.64c-9.89-15.07,7.54-34.55,18.88-34.21
					c14.1,0.42,23.99,13.94,35.8,21.43c3.01,1.91,5.82-0.67,6.22-3.98c3.3,0,5.5-6.16,3.08-9.94
					c-17.96-28.03-5.97-66.77,21.43-73.92c25.03-6.54,40.36,16.53,54.53,38.07c6.14,9.34,19.68-0.65,16.33-12.06
					c-0.86-2.92-1.87-5.72-2.99-8.44c1.26-4,4.49-7.08,7.82-8.19c1.26-0.42,2.53-0.6,3.8-0.68c-5.54,4.33-2.73,16.57,4.33,13.88
					c6.98-2.66,12.25-7.77,16.4-15.34C453.73,402.83,451.5,395.8,447.55,394.86z"/>
				<path class="st3" d="M673.32,562.8c-28.35,10.92-65.35,42.67-63.97,83.02c-9.88-34.31-57.51-41.78-65.49,1.12
					c-1,5.4,4.88,11.1,8.06,5.95c6.4-10.4,15.45-19.85,26.7-16.79c11.61,3.16,15.31,16.1,17.96,28.95c1.73,8.39,13.21,9.53,14.31,0
					c0.25-2.2,0.22-4.25,0.21-6.32c0.58,2.44,1.19,4.89,2.07,7.38c2.47,6.99,11.98,3.58,11.47-3.94
					c-2.58-37.48,24.95-62.2,50.77-72.2c36.55-14.15,39.56,23.33,43.36,57.16c1.76,15.67,20.18,10.73,20.81-3.57
					C741.8,592.49,717.12,545.93,673.32,562.8z"/>
			</g>
		</g>
		<path class="st1" d="M271.06,758.68c0,18.98,38.18,13.37,29.48,26.72c-29.48,45.22,157.57,148.94,318.8,148.94
			c204.95,0,328.17-97.94,333.26-144.58c16.48-150.92-149-405.21-333.26-405.21S271.06,606.86,271.06,758.68z"/>
		<circle class="st1" cx="628.74" cy="603.16" r="246.24"/>
		<g>
			<polygon class="st4" points="626.6,395.14 630.66,511.21 634.72,627.28 626.6,627.28 618.47,627.28 622.53,511.21 			"/>
			<polygon class="st4" points="641.66,395.68 637.31,511.75 632.97,627.81 624.86,627.22 616.76,626.63 629.21,511.16 			"/>
			<polygon class="st4" points="656.64,397.32 643.91,512.76 631.18,628.2 623.14,627.03 615.09,625.86 635.87,511.59 			"/>
			<polygon class="st4" points="671.47,400.03 650.41,514.25 629.36,628.47 621.43,626.72 613.49,624.97 642.48,512.5 			"/>
			<polygon class="st4" points="686.06,403.81 656.8,516.21 627.53,628.6 619.75,626.28 611.96,623.96 649.01,513.89 			"/>
			<polygon class="st4" points="700.33,408.64 663.02,518.62 625.7,628.6 618.1,625.73 610.5,622.85 655.42,515.74 			"/>
			<polygon class="st4" points="714.23,414.48 669.05,521.48 623.87,628.47 616.5,625.05 609.13,621.63 661.68,518.06 			"/>
			<polygon class="st4" points="727.66,421.32 674.86,524.76 622.06,628.21 614.95,624.26 607.85,620.32 667.75,520.82 			"/>
			<polygon class="st4" points="740.56,429.11 680.41,528.46 620.26,627.82 613.46,623.37 606.66,618.92 673.61,524.01 			"/>
			<polygon class="st4" points="752.87,437.81 685.69,532.55 618.51,627.29 612.05,622.36 605.59,617.43 679.23,527.62 			"/>
			<polygon class="st4" points="764.51,447.38 690.65,537.01 616.79,626.65 610.7,621.26 604.62,615.88 684.56,531.63 			"/>
			<polygon class="st4" points="775.43,457.77 695.28,541.82 615.13,625.88 609.45,620.06 603.76,614.25 689.6,536.01 			"/>
			<polygon class="st4" points="785.57,468.92 699.55,546.95 613.52,624.99 608.28,618.78 603.03,612.57 694.3,540.75 			"/>
			<polygon class="st4" points="794.87,480.77 703.43,552.38 611.99,623.98 607.21,617.41 602.42,610.84 698.65,545.81 			"/>
			<polygon class="st4" points="803.3,493.27 706.91,558.07 610.53,622.87 606.23,615.97 601.94,609.08 702.62,551.17 			"/>
			<polygon class="st4" points="810.8,506.34 709.98,564 609.15,621.66 605.37,614.47 601.59,607.28 706.19,556.81 			"/>
			<polygon class="st4" points="817.33,519.93 712.6,570.14 607.87,620.35 604.62,612.9 601.36,605.46 709.35,562.69 			"/>
			<polygon class="st4" points="822.86,533.95 714.77,576.45 606.69,618.95 603.98,611.29 601.27,603.62 712.07,568.78 			"/>
			<polygon class="st4" points="827.36,548.33 716.49,582.9 605.61,617.47 603.46,609.63 601.32,601.79 714.34,575.06 			"/>
			<polygon class="st4" points="830.82,563 717.73,589.46 604.64,615.91 603.06,607.94 601.49,599.96 716.15,581.48 			"/>
			<polygon class="st4" points="833.2,577.88 718.49,596.09 603.78,614.29 602.79,606.22 601.8,598.16 717.5,588.02 			"/>
			<polygon class="st4" points="834.49,592.9 718.77,602.75 603.05,612.61 602.64,604.49 602.23,596.38 718.36,594.64 			"/>
			<polygon class="st4" points="834.7,607.97 718.57,609.42 602.43,610.88 602.62,602.75 602.8,594.63 718.75,601.3 			"/>
			<polygon class="st4" points="833.82,623.01 717.88,616.06 601.95,609.11 602.72,601.02 603.49,592.93 718.65,607.97 			"/>
			<polygon class="st4" points="831.85,637.96 716.72,622.63 601.59,607.31 602.94,599.3 604.3,591.29 718.07,614.62 			"/>
			<polygon class="st4" points="828.8,652.72 715.08,629.1 601.37,605.49 603.3,597.6 605.23,589.7 717.01,621.21 			"/>
			<polygon class="st4" points="824.69,667.22 712.98,635.44 601.27,603.66 603.77,595.93 606.26,588.19 715.48,627.71 			"/>
			<polygon class="st4" points="819.55,681.38 710.43,641.61 601.31,601.83 604.36,594.29 607.41,586.76 713.48,634.07 			"/>
			<polygon class="st4" points="813.39,695.14 707.44,647.57 601.49,600 605.07,592.71 608.66,585.42 711.03,640.28 			"/>
			<polygon class="st4" points="806.26,708.42 704.02,653.3 601.79,598.19 605.89,591.18 610,584.17 708.13,646.29 			"/>
			<polygon class="st4" points="798.18,721.14 700.2,658.78 602.22,596.41 606.82,589.71 611.43,583.01 704.8,652.08 			"/>
			<polygon class="st4" points="789.2,733.25 695.99,663.96 602.79,594.67 607.86,588.32 612.93,581.97 701.07,657.61 			"/>
			<polygon class="st4" points="779.37,744.67 691.42,668.82 603.47,592.97 608.99,587 614.51,581.04 696.94,662.85 			"/>
			<polygon class="st4" points="768.74,755.36 686.51,673.34 604.28,591.32 610.22,585.77 616.15,580.22 692.45,667.79 			"/>
			<polygon class="st4" points="757.37,765.24 681.29,677.49 605.21,589.74 611.53,584.63 617.85,579.52 687.61,672.38 			"/>
			<polygon class="st4" points="745.31,774.28 675.78,681.25 606.24,588.22 612.92,583.59 619.59,578.96 682.45,676.62 			"/>
			<polygon class="st4" points="732.63,782.42 670.01,684.61 607.39,586.79 614.38,582.65 621.37,578.51 677,680.47 			"/>
			<polygon class="st4" points="719.39,789.62 664.01,687.53 608.63,585.44 615.9,581.82 623.18,578.2 671.28,683.91 			"/>
			<polygon class="st4" points="705.66,795.85 657.82,690.02 609.97,584.19 617.49,581.1 625,578.02 665.33,686.93 			"/>
			<polygon class="st4" points="691.52,801.07 651.46,692.05 611.4,583.04 619.12,580.5 626.84,577.97 659.18,689.52 			"/>
			<polygon class="st4" points="677.04,805.24 644.97,693.62 612.9,581.99 620.78,580.02 628.67,578.05 652.86,691.65 			"/>
			<polygon class="st4" points="662.3,808.36 638.39,694.71 614.48,581.05 622.48,579.66 630.49,578.27 646.39,693.32 			"/>
			<polygon class="st4" points="647.36,810.41 631.74,695.32 616.12,580.24 624.2,579.43 632.29,578.61 639.83,694.51 			"/>
			<polygon class="st4" points="632.32,811.37 625.07,695.45 617.82,579.54 625.94,579.31 634.06,579.09 633.19,695.23 			"/>
			<polygon class="st4" points="617.25,811.24 618.4,695.1 619.56,578.96 627.67,579.33 635.79,579.69 626.52,695.47 			"/>
			<polygon class="st4" points="602.23,810.02 611.78,694.27 621.34,578.52 629.41,579.47 637.48,580.42 619.85,695.22 			"/>
			<polygon class="st4" points="587.34,807.71 605.24,692.96 623.14,578.2 631.12,579.74 639.1,581.27 613.22,694.49 			"/>
			<polygon class="st4" points="572.65,804.34 598.81,691.18 624.97,578.02 632.82,580.13 640.66,582.23 606.66,693.28 			"/>
			<polygon class="st4" points="558.24,799.9 592.52,688.94 626.8,577.97 634.48,580.64 642.15,583.3 600.2,691.6 			"/>
			<polygon class="st4" points="544.2,794.44 586.41,686.25 628.63,578.05 636.09,581.27 643.56,584.48 593.88,689.46 			"/>
			<polygon class="st4" points="530.58,787.98 580.52,683.12 630.45,578.26 637.66,582.01 644.87,585.76 587.73,686.87 			"/>
			<polygon class="st4" points="517.47,780.55 574.86,679.58 632.25,578.61 639.17,582.87 646.09,587.13 581.78,683.84 			"/>
			<polygon class="st4" points="504.93,772.19 569.48,675.63 634.03,579.08 640.62,583.83 647.21,588.58 576.07,680.38 			"/>
			<polygon class="st4" points="493.03,762.94 564.39,671.31 635.76,579.68 641.99,584.9 648.22,590.11 570.63,676.53 			"/>
			<polygon class="st4" points="481.83,752.86 559.63,666.63 637.44,580.41 643.28,586.06 649.12,591.71 565.47,672.28 			"/>
			<polygon class="st4" points="471.38,741.99 555.23,661.62 639.07,581.25 644.49,587.31 649.9,593.37 560.64,667.68 			"/>
			<polygon class="st4" points="461.75,730.4 551.19,656.3 640.63,582.21 645.6,588.65 650.56,595.08 556.16,662.74 			"/>
			<polygon class="st4" points="452.99,718.13 547.56,650.71 642.12,583.28 646.61,590.06 651.09,596.84 552.04,657.49 			"/>
			<polygon class="st4" points="445.14,705.27 544.33,644.86 643.53,584.46 647.51,591.54 651.49,598.63 548.31,651.95 			"/>
			<polygon class="st4" points="438.23,691.87 541.54,638.8 644.85,585.73 648.31,593.09 651.76,600.44 545,646.16 			"/>
			<polygon class="st4" points="432.32,678.01 539.19,632.56 646.07,587.1 648.99,594.68 651.9,602.27 542.11,640.14 			"/>
			<polygon class="st4" points="427.42,663.76 537.31,626.15 647.19,588.55 649.55,596.33 651.91,604.1 539.67,633.93 			"/>
			<polygon class="st4" points="423.57,649.19 535.89,619.63 648.2,590.08 650,598 651.79,605.93 537.68,627.56 			"/>
			<polygon class="st4" points="420.78,634.38 534.94,613.03 649.1,591.68 650.32,599.71 651.53,607.75 536.15,621.06 			"/>
			<polygon class="st4" points="419.07,619.4 534.48,606.37 649.89,593.34 650.51,601.44 651.14,609.54 535.11,614.47 			"/>
			<polygon class="st4" points="418.45,604.34 534.5,599.7 650.54,595.05 650.59,603.17 650.63,611.3 534.54,607.82 			"/>
			<polygon class="st4" points="418.92,589.28 535,593.04 651.08,596.8 650.53,604.91 649.99,613.02 534.45,601.15 			"/>
			<polygon class="st4" points="420.47,574.29 535.98,586.44 651.48,598.59 650.35,606.64 649.22,614.68 534.85,594.49 			"/>
			<polygon class="st4" points="423.11,559.45 537.44,579.93 651.76,600.4 650.05,608.35 648.34,616.29 535.72,587.87 			"/>
			<polygon class="st4" points="426.82,544.84 539.36,573.54 651.9,602.23 649.62,610.03 647.34,617.83 537.08,581.34 			"/>
			<polygon class="st4" points="431.57,530.54 541.74,567.3 651.91,604.06 649.07,611.68 646.23,619.29 538.9,574.92 			"/>
			<polygon class="st4" points="437.35,516.62 544.57,561.26 651.79,605.89 648.41,613.28 645.02,620.67 541.19,568.65 			"/>
			<polygon class="st4" points="444.11,503.15 547.83,555.43 651.54,607.71 647.63,614.84 643.72,621.96 543.92,562.56 			"/>
			<polygon class="st4" points="451.84,490.21 551.5,549.86 651.15,609.5 646.74,616.33 642.32,623.15 547.08,556.68 			"/>
			<polygon class="st4" points="460.48,477.86 555.56,544.56 650.64,611.26 645.74,617.75 640.85,624.23 550.66,551.05 			"/>
			<polygon class="st4" points="469.99,466.17 560,539.58 650,612.98 644.65,619.1 639.29,625.21 554.64,545.69 			"/>
			<polygon class="st4" points="480.32,455.2 564.78,534.92 649.24,614.65 643.45,620.36 637.67,626.07 559,540.64 			"/>
			<polygon class="st4" points="491.42,445 569.89,530.63 648.36,616.26 642.18,621.54 636,626.81 563.71,535.91 			"/>
			<polygon class="st4" points="503.23,435.64 575.3,526.72 647.36,617.8 640.82,622.62 634.27,627.43 568.75,531.53 			"/>
			<polygon class="st4" points="515.68,427.15 580.97,523.21 646.26,619.26 639.38,623.59 632.5,627.92 574.09,527.54 			"/>
			<path class="st5" d="M626.61,818.43c-108.32,0-207.3-37.37-292.38-91.52l-47.92,113.7c99.52,59.52,215.91,93.74,340.3,93.74
				c124.31,0,240.64-34.17,340.12-93.63L916.8,730.29C832.18,783.59,734,818.43,626.61,818.43z"/>
			<polygon class="st4" points="528.72,419.59 586.89,520.12 645.05,620.64 637.88,624.46 630.71,628.29 579.71,523.94 			"/>
			<polygon class="st4" points="542.27,412.99 593.01,517.46 643.75,621.93 636.32,625.23 628.89,628.52 585.58,520.75 			"/>
			<polygon class="st4" points="556.26,407.38 599.31,515.25 642.35,623.13 634.7,625.87 627.06,628.62 591.66,518 			"/>
			<polygon class="st4" points="570.62,402.81 605.75,513.51 640.88,624.21 633.05,626.4 625.22,628.58 597.92,515.7 			"/>
			<polygon class="st4" points="585.28,399.28 612.3,512.24 639.32,625.19 631.36,626.8 623.4,628.42 604.34,513.85 			"/>
			<polygon class="st4" points="600.14,396.83 618.93,511.44 637.71,626.05 629.65,627.09 621.59,628.12 610.86,512.47 			"/>
			<polygon class="st4" points="615.15,395.45 625.59,511.13 636.03,626.8 627.92,627.25 619.8,627.69 617.48,511.57 			"/>
			<path class="st6" d="M626.57,388.54c117.9,0.77,213.24,96.57,213.24,214.64c0,118.08-95.34,213.88-213.24,214.64
				c-117.9-0.77-213.24-96.57-213.24-214.64C413.33,485.1,508.68,389.31,626.57,388.54 M717.13,836.4
				c32.16-12.7,61.07-31.85,85.12-55.87c0.63,0.62,1.3,1.28,2.02,1.99c-4.5,7.4-5.67,14.39-2.34,17.47
				c3.16,2.93,9.54,1.53,16.22-2.96l1.86,2.05l-6.02,6.5c-4.15,4.48-3.88,11.54,0.6,15.69l0,0c4.48,4.15,11.54,3.88,15.69-0.6
				l4.41-4.76c3.49,4.14,7.16,8.61,11,13.41c1.87,2.34,3.77,4.66,5.69,6.96V772.6c-3.57-0.59-7.37,0.55-10,3.39l-6.02,6.5l-2.18-1.7
				c3.97-7,4.88-13.47,1.71-16.4c-3.32-3.08-10.2-1.38-17.24,3.67c-0.76-0.66-1.48-1.28-2.14-1.86
				c34.88-40.69,56.95-92.69,59.93-149.75c0.87,0.04,1.81,0.08,2.81,0.13c1.61,8.51,5.42,14.49,9.95,14.55
				c4.31,0.06,8.12-5.25,10.07-13.05l2.75,0.27l-0.12,8.86c-0.09,6.11,4.84,11.17,10.95,11.26h0c6.11,0.09,11.17-4.84,11.26-10.95
				l0.09-6.48c5.36,0.75,11.08,1.61,17.15,2.61c46.6,7.66,95.6,7.7,97.62-14.08h0.05c0-0.2-0.01-0.4-0.01-0.6
				c0.01-0.2,0.03-0.4,0.03-0.6h-0.05c-1.41-21.83-50.39-23.16-97.18-16.81c-6.1,0.83-11.84,1.53-17.22,2.12l0.09-6.48
				c0.09-6.11-4.84-11.18-10.95-11.26h0c-6.11-0.09-11.17,4.84-11.26,10.95l-0.12,8.86l-2.76,0.2c-1.73-7.86-5.39-13.27-9.7-13.33
				c-4.53-0.07-8.5,5.8-10.35,14.26c-1,0.02-1.94,0.04-2.81,0.05c-1.66-67.68-30.15-128.69-75.23-172.83
				c0.61-0.64,1.26-1.32,1.97-2.04c7.45,4.42,14.45,5.5,17.49,2.15c2.89-3.19,1.43-9.56-3.14-16.18l2.02-1.89l6.57,5.95
				c4.53,4.1,11.59,3.75,15.69-0.78l0,0c4.1-4.53,3.75-11.59-0.78-15.69l-4.81-4.35c4.1-3.53,8.53-7.25,13.29-11.15
				c36.54-29.92,68.95-66.66,53.94-82.57l0.03-0.04c-0.15-0.14-0.3-0.26-0.46-0.39c-0.14-0.14-0.28-0.28-0.43-0.42l-0.03,0.04
				c-17.32-13.37-50.68,22.51-76.84,61.83c-3.41,5.12-6.67,9.9-9.78,14.33l-4.81-4.35c-4.53-4.1-11.59-3.75-15.69,0.78h0
				c-4.1,4.53-3.75,11.59,0.78,15.69l6.57,5.95l-1.68,2.2c-7.04-3.89-13.52-4.72-16.42-1.53c-3.04,3.35-1.27,10.21,3.87,17.19
				c-0.65,0.77-1.26,1.48-1.83,2.15c-41.45-34.73-94.31-56.3-152.14-58.29c0.04-0.76,0.09-1.56,0.14-2.41
				c8.53-1.49,14.56-5.22,14.69-9.74c0.12-4.31-5.13-8.19-12.91-10.25l0.31-2.75l8.86,0.25c6.11,0.17,11.24-4.68,11.41-10.79v0
				c0.17-6.11-4.68-11.24-10.79-11.41l-6.48-0.18c0.82-5.35,1.77-11.06,2.85-17.11c8.31-46.49,9.04-95.48-12.71-97.81v-0.05
				c-0.2,0-0.4,0-0.6,0c-0.2-0.01-0.4-0.03-0.6-0.04l0,0.05c-0.51,0.03-1.01,0.08-1.5,0.16c-0.49-0.08-0.99-0.13-1.5-0.16l0-0.05
				c-0.2,0-0.4,0.02-0.6,0.04c-0.2,0-0.4-0.01-0.6,0l0,0.05c-21.75,2.33-21.02,51.32-12.71,97.81c1.08,6.05,2.03,11.76,2.85,17.11
				l-6.48,0.18c-6.11,0.17-10.96,5.31-10.79,11.41v0c0.17,6.11,5.31,10.96,11.41,10.79l8.86-0.25l0.31,2.75
				c-7.78,2.06-13.03,5.94-12.91,10.25c0.13,4.53,6.15,8.25,14.69,9.74c0.05,0.85,0.1,1.65,0.14,2.41
				c-57.83,1.99-110.68,23.56-152.14,58.29c-0.57-0.66-1.18-1.38-1.83-2.15c5.13-6.98,6.91-13.84,3.87-17.19
				c-2.89-3.19-9.37-2.36-16.42,1.53l-1.68-2.2l6.57-5.95c4.53-4.1,4.88-11.16,0.78-15.69h0c-4.1-4.53-11.16-4.88-15.69-0.78
				l-4.81,4.35c-3.11-4.43-6.38-9.21-9.78-14.33c-26.16-39.32-59.52-75.2-76.84-61.83l-0.03-0.04c-0.15,0.14-0.29,0.28-0.43,0.42
				c-0.15,0.13-0.31,0.25-0.46,0.39l0.03,0.04c-15.01,15.91,17.4,52.66,53.94,82.57c4.76,3.89,9.19,7.62,13.29,11.15l-4.81,4.35
				c-4.53,4.1-4.88,11.16-0.78,15.69l0,0c4.1,4.53,11.16,4.88,15.69,0.78l6.57-5.95l2.02,1.89c-4.57,6.62-6.03,12.99-3.14,16.18
				c3.04,3.36,10.04,2.27,17.49-2.15c0.7,0.72,1.36,1.4,1.97,2.04c-45.08,44.14-73.57,105.15-75.23,172.83
				c-0.87-0.01-1.81-0.03-2.81-0.05c-1.85-8.46-5.82-14.33-10.35-14.26c-4.31,0.06-7.97,5.47-9.7,13.33l-2.76-0.2l-0.12-8.86
				c-0.09-6.11-5.15-11.04-11.26-10.95h0c-6.11,0.09-11.03,5.15-10.95,11.26l0.09,6.48c-5.38-0.59-11.12-1.3-17.22-2.12
				c-46.8-6.35-95.77-5.02-97.18,16.81h-0.05c0,0.2,0.02,0.4,0.03,0.6c-0.01,0.2-0.01,0.4-0.01,0.6h0.05
				c2.02,21.78,51.02,21.74,97.62,14.08c6.07-1,11.79-1.86,17.15-2.61l0.09,6.48c0.09,6.11,5.15,11.04,11.26,10.95h0
				c6.11-0.09,11.03-5.15,10.95-11.26l-0.12-8.86l2.75-0.27c1.95,7.81,5.76,13.11,10.07,13.05c4.53-0.06,8.34-6.04,9.95-14.55
				c1-0.05,1.94-0.09,2.81-0.13c2.98,57.06,25.05,109.06,59.93,149.75c-0.66,0.58-1.37,1.2-2.14,1.86c-3.17-2.27-6.3-3.87-9.09-4.65
				v59.81c3.96,1.79,8.79,1.18,12.16-1.95l0,0c4.48-4.15,4.75-11.21,0.6-15.69l-6.02-6.5l1.86-2.05c6.68,4.5,13.06,5.89,16.22,2.96
				c3.32-3.08,2.16-10.07-2.34-17.47c0.72-0.71,1.39-1.38,2.02-1.99c24.05,24.02,52.96,43.17,85.12,55.87H717.13z"/>
			<path class="st7" d="M442.4,798.95c3.2,1.03,9.67,1.1,8.25-7.67c-1.43-8.77-13.8-20.17-18.25-23.24c0,0,14.04,13.94,16.22,22.09
				C450.79,798.27,444.56,798.69,442.4,798.95"/>
			<path class="st8" d="M296.9,622.18c0,0-45.4,3.53-60.52-1.8c-15.12-5.33-17.49-11.52-13.77-17.38
				c-4.65,3.73-4.49,8.67-2.67,11.47C231.03,631.46,280.57,623.4,296.9,622.18"/>
			<path class="st7" d="M332.26,629.51c0.62,2.52,3.91,6.56,8.45,6.52c9.61-0.09,9.73-9.4,9.08-16.33
				c-0.66-7.16-1.44-22.41-1.4-22.24c0.06,0.26,0.18,7.46,0.05,15.05c-0.1,5.85-0.35,11.94-0.89,15.27
				c-0.57,3.52-4.67,5.92-7.42,5.9C336.45,633.64,333.13,630.96,332.26,629.51"/>
			<path class="st7" d="M358.94,624.74c1.77,2.86,6.66,7.1,11.25-0.5c4.59-7.6,2.55-24.31,1.15-29.53c0,0,1.66,19.71-1.95,27.33
				C365.78,629.66,360.76,625.95,358.94,624.74"/>
			<path class="st8" d="M394.51,367.84c0,0-31.91-32.49-37.56-47.49c-5.65-15-2.44-20.8,4.45-21.72c-5.85-1.16-9.53,2.14-10.5,5.34
				C345.03,323.37,383.06,356.12,394.51,367.84"/>
			<path class="st7" d="M412.99,398.44c-1.53,2.1-2.51,7.22,0.44,10.67c6.25,7.3,13.45,1.4,18.35-3.55
				c5.06-5.12,16.23-15.51,16.13-15.38c-0.16,0.22-5.59,4.93-11.49,9.72c-4.54,3.69-9.37,7.41-12.26,9.14
				c-3.06,1.83-7.54,0.24-9.29-1.89C412.52,404.3,412.44,400.03,412.99,398.44"/>
			<path class="st7" d="M433.81,415.79c-1.05,3.19-1.15,9.67,7.62,8.29c8.78-1.38,20.25-13.68,23.34-18.12
				c0,0-14.02,13.96-22.18,16.09C434.44,424.19,434.05,417.96,433.81,415.79"/>
			<path class="st7" d="M834.44,773.16c0.76-3.27,0.29-9.73-8.33-7.58c-8.62,2.15-18.95,15.43-21.64,20.12c0,0,12.73-15.15,20.66-18
				C833.06,764.85,834,771.02,834.44,773.16"/>
			<path class="st8" d="M955.97,594.49c0,0,45.4-3.53,60.52,1.8c15.12,5.33,17.49,11.52,13.77,17.38c4.65-3.73,4.49-8.67,2.67-11.47
				C1021.84,585.21,972.3,593.27,955.97,594.49"/>
			<path class="st7" d="M921.45,584.92c-0.62-2.52-3.92-6.56-8.45-6.52c-9.61,0.09-9.73,9.4-9.08,16.33
				c0.66,7.16,1.44,22.4,1.4,22.24c-0.06-0.26-0.18-7.46-0.05-15.05c0.1-5.85,0.35-11.94,0.89-15.27c0.57-3.52,4.67-5.92,7.42-5.9
				C917.26,580.79,920.58,583.47,921.45,584.92"/>
			<path class="st7" d="M894.77,589.69c-1.77-2.86-6.66-7.1-11.25,0.5c-4.59,7.6-2.55,24.31-1.14,29.53c0,0-1.66-19.71,1.95-27.33
				C887.93,584.77,892.95,588.48,894.77,589.69"/>
			<path class="st8" d="M837.09,348.91c0,0,27.75-36.1,41.83-43.77c14.07-7.67,20.26-5.29,22.13,1.4c0.34-5.96-3.44-9.14-6.74-9.66
				C874.27,293.75,847.11,335.96,837.09,348.91"/>
			<path class="st7" d="M806.84,369.13c-2.29-1.23-7.5-1.48-10.5,1.92c-6.36,7.2,0.48,13.52,6.06,17.68
				c5.77,4.3,17.61,13.92,17.46,13.84c-0.24-0.13-5.66-4.86-11.21-10.03c-4.28-3.99-8.64-8.25-10.75-10.88
				c-2.24-2.78-1.28-7.43,0.58-9.46C800.97,369.48,805.19,368.8,806.84,369.13"/>
			<path class="st7" d="M792.31,391.81c-3.31-0.59-9.73,0.2-7.15,8.7c2.58,8.5,16.35,18.16,21.18,20.61c0,0-15.76-11.95-19.01-19.74
				C784.08,393.6,790.2,392.35,792.31,391.81"/>
			<path class="st8" d="M610.97,270.4c0,0-1.5-45.51,4.5-60.38c6-14.87,12.29-16.96,17.98-12.98c-3.52-4.82-8.46-4.87-11.34-3.18
				C604.64,204.17,610.48,254.03,610.97,270.4"/>
			<path class="st7" d="M606.72,307.02c-2.55,0.51-6.73,3.62-6.89,8.15c-0.34,9.6,8.96,10.14,15.91,9.81
				c7.19-0.34,22.45-0.43,22.28-0.4c-0.27,0.05-7.46-0.15-15.03-0.62c-5.84-0.36-11.91-0.88-15.21-1.57
				c-3.49-0.73-5.71-4.93-5.56-7.68C602.41,311.02,605.24,307.82,606.72,307.02"/>
			<path class="st7" d="M610.3,333.89c-2.93,1.64-7.39,6.33,0,11.26c7.39,4.93,24.17,3.64,29.45,2.46c0,0-19.77,0.78-27.22-3.17
				C605.08,340.5,609.01,335.65,610.3,333.89"/>
			<path class="st6" d="M428.85,710.69l-86.89,10.56c0,0,38.44,27.04,81.9,41.99L428.85,710.69z"/>
			<path class="st6" d="M216.08,751.29c0,0,46.29-20.3,60.91-34.11c0,0-2.44-49.54-6.5-66.59c0,0,73.9,36.54,150.24,52.79
				l-89.33,12.18l-30.86,69.84C300.54,785.4,234.76,762.66,216.08,751.29"/>
			<path class="st6" d="M1037.07,755.65c0,0-46.29-20.3-60.91-34.11c0,0,2.44-49.54,6.5-66.59c0,0-73.9,36.54-150.24,52.79
				l89.33,12.18l30.86,69.84C952.61,789.76,1018.39,767.02,1037.07,755.65"/>
			<path class="st6" d="M824.3,715.05l86.89,10.56c0,0-43.45,26.7-72.9,36.99L824.3,715.05z"/>
			<path class="st9" d="M279.83,798.65l55.22-128.31c0,0,123.44,71.13,289.11,72.76c165.67,1.62,293.98-66.26,293.98-66.26
				l56.85,125.06c0,0-147.32,79.25-351.97,76.01C418.37,874.66,279.83,798.65,279.83,798.65"/>
			<path class="st6" d="M810.24,585.88c0,0-8.32-4.62-11.71-17.25c-3.39-12.63-12.02-20.64-27.11-11.71
				c-15.1,8.94-12.32,9.86-14.17,15.1c-1.85,5.24-1.54,14.79-39.75,34.82c-38.21,20.03-106.61,61.62-153.75,83.8
				c-47.14,22.18-79.49,38.82-97.67,44.67c-18.18,5.85-17.87-2.46-32.04,5.85c-14.17,8.32-18.18,17.25-15.4,26.19
				c2.77,8.94,15.71,8.63,22.18,18.79c0,0,2.14,2.36-0.17,8.38c-2.31,6.01-2.78,17.81,10.41,21.28c13.19,3.47,23.6,3.24,30.77-9.02
				c7.17-12.26,7.17-13.42,7.17-24.06c0,0,11.1-12.49,30.31-24.52c19.2-12.03,123.78-63.62,152.23-80.51
				c28.46-16.89,74.5-39.33,89.54-46.73c15.04-7.4,21.75-11.8,28.92-13.42c7.17-1.62,9.72,8.1,18.28,12.03
				c8.56,3.93,23.6,2.78,31.23-11.1c7.64-13.88,1.16-22.44-5.55-25.22C827.24,590.48,816.83,588.39,810.24,585.88"/>
			<path class="st10" d="M801.97,584.45c0,0-5.66-5.89-8.83-16.31c-3.17-10.42-9.06-13.14-18.12-7.93
				c-9.06,5.21-13.82,7.25-13.59,12.91c0,0,4.31,7.7,2.95,25.83c0,0-0.92-12.84-4.57-20.2c-2.78,5.28-8.89,11.78-16.5,17.94
				c-10.65,8.61-50.74,27.41-84.04,47.34c-33.3,19.93-131.61,69.77-160.15,82.45c-28.54,12.69-33.3,14.27-43.49,14.95
				c-10.19,0.68-13.9-2.23-25.6,7.25c-10.5,8.51-11.09,17.63-0.6,23.83c4.99,2.43,4.84,2.28,4.99,2.43
				c4.48,2.24,14.11,8.71,11.31,14.85v0c0,3.07-0.74,6.32-1.66,9.64c-2.69,9.73,11.55,16.31,24.69,13.14c0,0,7.48-2.04,12.69-13.59
				c2.54-5.63,3.36-10.29,3.53-13.59c0.57-10.93,1.48-7.2,8.27-13.01c3.01-2.57,6.85-5.8,11.54-9.64
				c13.82-11.32,114.17-59.8,136.37-73.17c22.2-13.37,82.91-44.85,99.22-53.01c16.31-8.15,22.65-9.51,31.26-15.4
				c3.99-2.73,8.92-5.42,13.72-6.88c-8.64-3.59-19.16,0.53-31.84,7.78c-12.69,7.25-74.3,38.74-74.3,38.74s66.15-37.83,83.82-47.57
				c17.67-9.74,28.55-0.06,28.55-0.06h0c3.21-0.1,6.12,0.68,8.37,2.78c6.8,6.34,9.74,14.5,25.82,9.97c0,0,12.07-6.18,12.69-17.67
				c0.61-11.49-8.16-12.23-19.26-14.95c-6.92-1.69-11.63-3.56-14.37-5.45c-11.22,0.06-21.42-14.72-21.42-14.72
				c7.01,7.53,14.76,11.13,18.7,11.75C802.04,584.73,802,584.59,801.97,584.45"/>
			<path class="st11" d="M808.14,596.98c-9.97-1.47-30.02-10.5-30.12-30.75c0,0,7.35,12.46,24.08,18.64c0,0,3.59,5.5,20.78,9.29
				c17.19,3.78,15.03,9.05,15.56,14.08c0.29,2.81-1.4,6.17-2.94,8.6c-0.11,0.29-0.18,0.45-0.18,0.45c-0.24,0.29-0.48,0.58-0.71,0.86
				c-0.83,1.18-1.47,1.93-1.47,1.93c0.03-0.1,0.06-0.2,0.08-0.3c-5.93,6.72-8.05,6.26-13.34,7.32c-5.87,1.18-11.31-1.08-16.92-8.02
				c-5.61-6.94-11.4-5.9-11.4-5.9c-9.67-7.18-22.09-2.79-22.09-2.79s5.01-3.93,20.91-4.09c15.9-0.15,20.43,11.24,31.95,7.8
				c8.77-2.62,8.08-8.84,6.42-10.99C824.88,598.05,811.38,597.45,808.14,596.98"/>
			<path class="st11" d="M507.64,748.98c-14.96,7.16-23.04,8.59-30.21,7.15c-9.77-1.96-11.45-3.91-11.45-3.91s9.15,3.17,9.49,26.24
				c0.34,23.07-5.86,21.77-5.86,21.77s9.31,4.2,15.68-19.26c0,0-0.04-4.91,5.96-7.06c6-2.15,6.38-8.98,34.67-23.98
				c28.29-15,99.17-51.07,112.58-58.85c0,0-16.23,7.69-22.61,9.49c-0.78,0.22,11.44-7.25,22.17-14.66
				c8.15-5.63,19.77-14.1,19.77-14.1C657.84,671.82,558.72,724.52,507.64,748.98"/>
			<path class="st6" d="M824.62,619.79c0,0-9.52,3.85-13.82-2.27c-4.3-6.11-11.32-9.97-16.31-9.51c0,0,8.61,2.95,11.78,8.84
				C809.44,622.73,818.05,624.54,824.62,619.79"/>
			<path class="st11" d="M739.27,603.77c0,0-109.93,63.1-126.8,70.64C612.48,674.41,695.62,625.79,739.27,603.77"/>
			<path class="st6" d="M478.75,774.01c0,0,2.33,28.03-8.01,31.03C470.75,805.04,484.55,802.04,478.75,774.01"/>
			<path class="st11" d="M450.63,744.74c-9.6,0.44-12.66,6.98-12.22,12.66c0.44,5.67,15.28,8.29,19.42,17.02
				c4.15,8.73-0.71,14.65-0.22,23.79c0.49,9.14,6.7,13.29,14.1,12.89c0,0-11.03,5.96-23.15-1.39c-12.12-7.35,3.15-19.22-5.14-28.13
				c-8.29-8.91-9.59-8.16-12.44-15.89c0,0-1.65,0.55,0.92,8.02c0,0-15.01-5.37-8.44-17.68
				C430.03,743.72,444.52,743.87,450.63,744.74"/>
			<path class="st6" d="M451.65,787.94c0,0-4.34,17.01,3.5,20.18C455.15,808.13,442.64,805.46,451.65,787.94"/>
			<path class="st6" d="M830.99,614.14c0-0.01-2.64,2.52-6.08,4.04c-3.34,1.48-7.43,1.97-10.66,0.41c0,0,2.89,1.06,9.91-1.21
				C826.21,616.71,828,615.39,830.99,614.14"/>
			<path class="st11" d="M785.34,614.27c0,0-9.36-6.69-31.85,7.78c0,0-59.45,31.07-76.65,39.82c-17.2,8.75-19.01,9.96-19.01,9.96
				s70.6-31.83,90.66-41.49c20.06-9.65,22.63-11.8,27.23-11.78C775.73,618.56,778.22,617.2,785.34,614.27"/>
			<path class="st11" d="M724.46,630.34c0,0-25.69,15.11-56.68,32.12c-30.98,17-33.63,18.7-33.63,18.7S664.95,661.89,724.46,630.34"
				/>
			<path class="st6" d="M451.97,772.66c0,0,1.71,5.57,0.97,17.32c-0.75,11.74-0.66,17.88,8.91,19.59c0,0-8.08-1.98-6.96-12.98
				C456.01,785.59,455.51,776.39,451.97,772.66"/>
			<path class="st6" d="M434.88,748.66c0.01,0.06-3.48,2.13-5.68,4.96c-1.94,2.5-2.66,5.57-2.13,8.87
				c-0.07,0.22-0.29-3.12,3.27-8.67C431.45,752.09,432.93,751.02,434.88,748.66"/>
			<path class="st11" d="M451.61,741.55c0,0,5.44,2.44,15.21,1.05c17.26-2.47,31.24-10.34,50.67-24.73c0,0-35.38,16.29-45.6,20.09
				C461.66,741.76,451.61,741.55,451.61,741.55"/>
			<path class="st6" d="M434.83,752.3c-3.93,3.27-5.19,7.94-3.84,13.39c1.36,5.45,7.64,7.76,7.64,7.76s-4.3-4.13-5.12-7.6
				c0,0,1.49,2.97,4.3,3.64C437.8,769.49,429.21,763.71,434.83,752.3"/>
			<path class="st6" d="M453.32,738.85c0,0,5.49,3.89,22.43-1.19c16.93-5.09,20.28-7.03,20.28-7.03S458.6,749.57,453.32,738.85"/>
			<path class="st6" d="M805.53,585.44c-0.87,1.19-12.92-2.6-23.59-14.13c0,0,7.34,16.69,27.77,18.7L805.53,585.44z"/>
			<path class="st6" d="M450.53,585.88c0,0,8.32-4.62,11.71-17.25c3.39-12.63,12.02-20.64,27.11-11.71
				c15.1,8.94,12.32,9.86,14.17,15.1c1.85,5.24,1.54,14.79,39.75,34.82c38.21,20.03,106.61,61.62,153.75,83.8
				c47.14,22.18,79.49,38.82,97.67,44.67c18.18,5.85,17.87-2.46,32.04,5.85c14.17,8.32,18.18,17.25,15.4,26.19
				c-2.77,8.94-15.71,8.63-22.18,18.79c0,0-2.14,2.36,0.17,8.38c2.31,6.01,2.78,17.81-10.41,21.28c-13.19,3.47-23.6,3.24-30.77-9.02
				c-7.17-12.26-7.17-13.42-7.17-24.06c0,0-11.1-12.49-30.31-24.52c-19.2-12.03-123.78-63.62-152.23-80.51
				c-28.46-16.89-74.5-39.33-89.54-46.73c-15.04-7.4-21.75-11.8-28.92-13.42c-7.17-1.62-9.72,8.1-18.28,12.03
				c-8.56,3.93-23.6,2.78-31.23-11.1c-7.64-13.88-1.16-22.44,5.55-25.22C433.52,590.48,443.93,588.39,450.53,585.88"/>
			<path class="st10" d="M458.8,584.45c0,0,5.66-5.89,8.83-16.31c3.17-10.42,9.06-13.14,18.12-7.93
				c9.06,5.21,13.82,7.25,13.59,12.91c0,0-4.31,7.7-2.95,25.83c0,0,0.92-12.84,4.57-20.2c2.78,5.28,8.89,11.78,16.5,17.94
				c10.65,8.61,50.74,27.41,84.04,47.34c33.3,19.93,131.61,69.77,160.15,82.45c28.54,12.69,33.3,14.27,43.49,14.95
				c10.19,0.68,13.9-2.23,25.6,7.25c10.5,8.51,11.09,17.63,0.6,23.83c-4.99,2.43-4.84,2.28-4.99,2.43
				c-4.48,2.24-14.11,8.71-11.31,14.85v0c0,3.07,0.74,6.32,1.66,9.64c2.69,9.73-11.55,16.31-24.69,13.14c0,0-7.48-2.04-12.69-13.59
				c-2.54-5.63-3.36-10.29-3.53-13.59c-0.57-10.93-1.48-7.2-8.27-13.01c-3.01-2.57-6.85-5.8-11.54-9.64
				c-13.82-11.32-114.17-59.8-136.37-73.17c-22.2-13.37-82.91-44.85-99.22-53.01c-16.31-8.15-22.65-9.51-31.26-15.4
				c-3.99-2.73-8.92-5.42-13.72-6.88c8.64-3.59,19.16,0.53,31.85,7.78c12.69,7.25,74.3,38.74,74.3,38.74s-66.15-37.83-83.82-47.57
				c-17.67-9.74-28.55-0.06-28.55-0.06h0c-3.21-0.1-6.12,0.68-8.37,2.78c-6.8,6.34-9.74,14.5-25.82,9.97c0,0-12.07-6.18-12.69-17.67
				c-0.61-11.49,8.16-12.23,19.26-14.95c6.92-1.69,11.63-3.56,14.37-5.45c11.22,0.06,21.42-14.72,21.42-14.72
				c-7.01,7.53-14.77,11.13-18.7,11.75C458.72,584.73,458.76,584.59,458.8,584.45"/>
			<path class="st11" d="M452.62,596.98c9.97-1.47,30.02-10.5,30.12-30.75c0,0-7.35,12.46-24.08,18.64c0,0-3.59,5.5-20.78,9.29
				c-17.19,3.78-15.03,9.05-15.56,14.08c-0.29,2.81,1.4,6.17,2.94,8.6c0.11,0.29,0.18,0.45,0.18,0.45c0.24,0.29,0.48,0.58,0.71,0.86
				c0.83,1.18,1.47,1.93,1.47,1.93c-0.03-0.1-0.05-0.2-0.08-0.3c5.93,6.72,8.05,6.26,13.34,7.32c5.87,1.18,11.31-1.08,16.92-8.02
				c5.61-6.94,11.4-5.9,11.4-5.9c9.67-7.18,22.09-2.79,22.09-2.79s-5.01-3.93-20.91-4.09c-15.9-0.15-20.43,11.24-31.95,7.8
				c-8.77-2.62-8.08-8.84-6.42-10.99C435.88,598.05,449.38,597.45,452.62,596.98"/>
			<path class="st11" d="M753.12,748.98c14.96,7.16,23.04,8.59,30.21,7.15c9.77-1.96,11.45-3.91,11.45-3.91s-9.15,3.17-9.49,26.24
				c-0.34,23.07,5.86,21.77,5.86,21.77s-9.31,4.2-15.68-19.26c0,0,0.04-4.91-5.96-7.06c-6-2.15-6.38-8.98-34.67-23.98
				c-28.29-15-99.17-51.07-112.58-58.85c0,0,16.23,7.69,22.61,9.49c0.78,0.22-11.44-7.25-22.17-14.66
				c-8.15-5.63-19.77-14.1-19.77-14.1C602.92,671.82,702.04,724.52,753.12,748.98"/>
			<path class="st6" d="M436.14,619.79c0,0,9.52,3.85,13.82-2.27c4.3-6.11,11.32-9.97,16.31-9.51c0,0-8.61,2.95-11.78,8.84
				C451.32,622.73,442.71,624.54,436.14,619.79"/>
			<path class="st11" d="M521.49,603.77c0,0,109.93,63.1,126.8,70.64C648.29,674.41,565.14,625.79,521.49,603.77"/>
			<path class="st6" d="M782.01,774.01c0,0-2.33,28.03,8.01,31.03C790.02,805.04,776.21,802.04,782.01,774.01"/>
			<path class="st11" d="M810.13,744.74c9.6,0.44,12.66,6.98,12.22,12.66c-0.44,5.67-15.28,8.29-19.42,17.02
				c-4.15,8.73,0.71,14.65,0.22,23.79c-0.49,9.14-6.7,13.29-14.1,12.89c0,0,11.03,5.96,23.15-1.39c12.12-7.35-3.15-19.22,5.14-28.13
				c8.29-8.91,9.59-8.16,12.43-15.89c0,0,1.66,0.55-0.92,8.02c0,0,15.01-5.37,8.44-17.68C830.73,743.72,816.24,743.87,810.13,744.74
				"/>
			<path class="st6" d="M809.12,787.94c0,0,4.34,17.01-3.5,20.18C805.61,808.13,818.13,805.46,809.12,787.94"/>
			<path class="st6" d="M429.77,614.14c-0.01-0.01,2.64,2.52,6.08,4.04c3.34,1.48,7.43,1.97,10.66,0.41c0,0-2.9,1.06-9.91-1.21
				C434.55,616.71,432.76,615.39,429.77,614.14"/>
			<path class="st11" d="M475.43,614.27c0,0,9.36-6.69,31.85,7.78c0,0,59.45,31.07,76.65,39.82c17.2,8.75,19.01,9.96,19.01,9.96
				s-70.6-31.83-90.66-41.49c-20.06-9.65-22.63-11.8-27.23-11.78C485.03,618.56,482.54,617.2,475.43,614.27"/>
			<path class="st11" d="M536.3,630.34c0,0,25.69,15.11,56.68,32.12c30.98,17,33.63,18.7,33.63,18.7S595.81,661.89,536.3,630.34"/>
			<path class="st6" d="M808.79,772.66c0,0-1.71,5.57-0.97,17.32c0.75,11.74,0.66,17.88-8.91,19.59c0,0,8.08-1.98,6.96-12.98
				C804.75,785.59,805.25,776.39,808.79,772.66"/>
			<path class="st6" d="M825.88,748.66c-0.01,0.06,3.48,2.13,5.68,4.96c1.94,2.5,2.66,5.57,2.13,8.87c0.07,0.22,0.29-3.12-3.27-8.67
				C829.31,752.09,827.84,751.02,825.88,748.66"/>
			<path class="st11" d="M809.15,741.55c0,0-5.44,2.44-15.21,1.05c-17.26-2.47-31.24-10.34-50.67-24.73c0,0,35.38,16.29,45.6,20.09
				C799.1,741.76,809.15,741.55,809.15,741.55"/>
			<path class="st6" d="M825.94,752.3c3.93,3.27,5.19,7.94,3.84,13.39c-1.36,5.45-7.64,7.76-7.64,7.76s4.3-4.13,5.12-7.6
				c0,0-1.49,2.97-4.3,3.64C822.96,769.49,831.55,763.71,825.94,752.3"/>
			<path class="st6" d="M807.44,738.85c0,0-5.49,3.89-22.42-1.19c-16.93-5.09-20.28-7.03-20.28-7.03S802.17,749.57,807.44,738.85"/>
			<path class="st6" d="M455.23,585.44c0.87,1.19,12.92-2.6,23.59-14.13c0,0-7.34,16.69-27.77,18.7L455.23,585.44z"/>
			<path class="st10" d="M587.79,513.02c0,0-21.99,14.23-23.71,28.03c-1.72,13.8-12.72,10.35-15.31,19.19
				c-2.59,8.84,6.04,28.67,5.61,37.3c-0.43,8.62-0.22,21.77,1.08,22.85c1.29,1.08,10.78-12.72,29.32-13.8
				c18.54-1.08,17.03-3.67,19.83-0.43c1.81,2.09,16.07,22.21,21.88,21.77c1.35-0.1,2.39-0.46,3.22-1.02
				c7.59-5.17,1.33-26.23,34.19-20.54c16.62,2.88,23.28,6.25,26.73,10.13c3.45,3.88,6.04,3.45,6.04-3.23
				c0-6.68-1.94-21.34,1.29-37.51c3.23-16.17-5.61-43.98-7.98-46.14c-2.37-2.16-32.55-23.07-54.11-25.44
				C614.31,501.8,591.89,509.35,587.79,513.02"/>
			<path class="st11" d="M622.18,516.14c0,0,3.23,12.5,3.45,18.54c0.22,6.04-1.29,9.05-2.37,12.07c-1.08,3.02-3.23,9.49-3.45,13.15
				c-0.22,3.67,2.16,4.53,3.45,6.47c1.29,1.94,1.51,4.96,1.29,7.98c-0.22,3.02-0.22,4.96-0.22,4.96s2.8-8.19,2.16-10.56
				c-0.65-2.37-5.32-3.13-4.31-12.07c0,0,4.96-14.44,6.04-17.68c1.08-3.23,0.43-3.45-1.51-10.78
				C624.77,520.88,622.18,516.14,622.18,516.14"/>
			<path class="st11" d="M662.01,515.44c0.54,1.08,2.59,7.11,3.34,10.02c0.75,2.91,0.97,2.59,0.11,4.74
				c-0.86,2.16-2.26,4.42-4.42,5.28s-7.65,3.67-8.62,3.67c-0.97,0,5.82-4.64,7.98-9.59C662.55,524.6,661.47,517.17,662.01,515.44"/>
			<path class="st10" d="M548.77,631.59c0.65,3.45,1.29,11.43,1.29,13.8c0,2.37-3.23,4.1-5.39,4.1c-2.16,0-0.43,6.68,4.1,10.56
				c4.53,3.88,11.21,10.13,15.09,11c3.88,0.86,16.82-1.72,17.89,3.66c1.08,5.39,2.8,31.91,5.17,38.16
				c2.37,6.25,17.68,15.31,33.63,16.38c15.95,1.08,45.06-9.27,48.51-17.89c3.45-8.62-3.02-29.97-1.51-34.28
				c1.51-4.31,5.61-9.49,12.94-7.11c7.33,2.37,17.46-3.67,23.28-10.35c5.82-6.68,5.61-10.56,1.08-10.78
				c-4.53-0.22-2.16-20.48-2.16-20.48s-7.98-0.65-12.94,5.82c-4.96,6.47-12.07,15.52-24.79,11c-12.72-4.53-19.4-9.05-21.77-4.96
				c-2.37,4.1-3.02,19.4-14.45,20.48c-11.43,1.08-23.5-13.8-24.79-19.83c-1.29-6.04-14.01,5.17-22.21,5.39
				c-8.19,0.22-20.05-11.86-21.77-15.31C558.26,627.49,548.77,631.59,548.77,631.59"/>
			<path class="st11" d="M557.5,591.6c0.65-1.29,7.33-8.62,11.64-10.78c0,0-8.84-14.44-12.29-18.33c-3.45-3.88-6.04-3.02-4.74,3.67
				C553.41,572.84,557.07,581.46,557.5,591.6 M560.95,601.95c0,0,6.04-9.92,15.31-12.07c9.27-2.16,19.62,1.72,22.85,3.23
				c0,0-2.59,0.65-7.33,0.65c0,0,7.98,2.37,12.5,4.53c4.53,2.16,6.92,7.31,5.82,9.7c0,0-2.16-7.54-11.64-7.33
				c-9.49,0.22-23.12,3.61-26.68,4.58c-3.56,0.97-8.73,4.64-10.35,6.9c-1.62,2.26-3.99,5.07-4.64,5.39
				c-0.65,0.32,3.45-7.87,7.76-11.86c4.31-3.99,5.39-4.42,5.39-4.42s-1.51-0.75-7.01,2.26c0,0,2.37-2.26,5.28-4.63
				c2.91-2.37,3.77-3.34,3.77-3.34s-3.02,0.75-5.71,2.59C563.59,599.95,560.9,603.29,560.95,601.95z M649.83,583.03
				c0,0,6.79-3.02,10.78-3.56c3.99-0.54,6.14,0.32,6.14,0.32S656.6,580.45,649.83,583.03z M696.18,571.28c0,0-1.83,5.5-2.59,11.32
				c-0.75,5.82-1.08,9.38-1.08,9.38s-3.99-5.39-7.44-8.3c-3.45-2.91-6.79-3.77-6.79-3.77s4.31-2.59,8.84-4.2
				C691.65,574.08,696.18,571.28,696.18,571.28z M692.41,605.77c0.54-1.51-2.59-6.9-6.14-10.78c-3.56-3.88-13.47-7.76-21.24-6.36
				c-7.76,1.4-8.08,2.59-8.08,2.59s5.5-0.86,9.16,0.54c0,0-1.62,0.32-6.68,1.4c-5.07,1.08-8.62,3.02-8.62,3.56
				c0,0.54,3.77-2.7,12.4-2.16c0,0-8.62,1.72-12.5,3.88c-3.88,2.16-5.93,5.07-5.28,5.07c0.65,0,2.16-2.59,9.38-2.37
				c7.22,0.22,17.89,3.02,23.93,4.31c6.04,1.29,10.13,4.31,11.32,6.25c1.19,1.94,1.72,3.02,1.72,3.02s-0.11-1.19-0.97-4.63
				c-0.86-3.45-14.12-10.56-16.28-11.64c-2.16-1.08-4.63-2.59-6.04-2.7c0,0,3.02-0.65,6.9,1.08c3.88,1.72,5.39,3.02,7.11,3.34
				c0,0-3.88-3.34-5.17-4.53c-1.29-1.19-1.94-1.62-1.94-1.62s2.8,0.75,5.39,2.16c2.59,1.4,5.17,3.34,4.85,2.7
				c-0.32-0.65-3.56-4.1-3.56-4.1S690.11,600.01,692.41,605.77z M619,610.3c0,0,1.62-4.2,4.1-5.28c2.48-1.08,5.28-0.32,6.79,1.4
				c1.51,1.72,1.94,3.45,1.94,3.45S625.41,607.41,619,610.3z M619.97,613.53c-0.75,1.4-0.43,4.1,1.29,6.68
				c1.72,2.59,3.23,4.63,6.58,3.66c3.34-0.97,4.42-7.01,4.31-8.84C631.84,609.69,621.71,610.31,619.97,613.53z M566.45,541.69
				c-3.02,10.56,8.19,19.19,15.31,23.5c7.11,4.31,16.38,7.76,19.83,12.5c0,0-16.6-3.88-19.19-3.88s10.78,8.62,17.68,12.07
				c6.9,3.45,13.15,6.68,14.23,5.39c1.08-1.29,7.55-6.68,11.21-6.04c3.67,0.65,6.9,5.61,8.41,4.53c1.51-1.08,5.61-7.11,18.54-9.92
				c12.94-2.8,4.1-3.45-4.1-0.86c-8.19,2.59-9.49,3.67-9.49,3.67s5.61-5.17,21.99-11.21c16.38-6.04,29.32-14.01,28.46-26.95
				c-0.86-12.93-4.75-18.75-4.75-18.75s17.9,12.71,22.43,27.37c4.53,14.66,3.88,25.22,3.66,36.65c-0.22,11.43-3.02,31.69-3.66,34.71
				c-0.65,3.02-4.53,26.73-4.53,26.73s-3.23,2.59-8.62,2.16c-5.39-0.43-4.31-4.96-2.16-9.49c2.16-4.53,2.8-8.84,2.8-8.84
				s-5.17,12.29-14.01,16.6c-8.84,4.31-22.64,1.08-26.73-4.31c0,0-6.25,19.62-15.74,25.22c-9.49,5.61-22.85,4.1-28.46-1.94
				c-5.61-6.04-10.35-16.6-11.21-18.97c0,0-2.59,0.86-6.25,0.86c0,0,6.25-3.02,6.47-6.04c0,0-9.49,7.55-22.21,6.68
				c-12.72-0.86-16.35-10.94-18.33-17.25c0,0,2.59,11.64-1.72,14.01c-4.31,2.37-6.47,0.43-6.47,0.43s-7.76-39.02-8.19-51.96
				c-0.43-12.94-0.43-36.43,3.02-46.35c3.45-9.92,9.27-15.95,16.6-22.64c7.33-6.68,25.05-16.21,28.96-17.96
				c1.2-0.54,1.78-0.55,1.79-0.14C592.11,514.25,570.49,527.53,566.45,541.69z"/>
			<path class="st10" d="M567.96,696.05c0,0-2.59,18.54,2.8,23.28c5.39,4.74,14.66,14.88,16.82,18.97c2.16,4.1,9.05,12.5,12.5,14.66
				c3.45,2.16,8.84,4.53,18.76,3.66c9.92-0.86,15.52-0.22,20.48,0.22c4.96,0.43,10.13-2.16,13.8-4.74
				c3.67-2.59,23.93-21.56,27.16-29.32c3.23-7.76,3.23-32.99,3.23-32.99s-4.1,4.53-7.55,11.86c-3.45,7.33-18.54,24.79-26.73,26.09
				c-8.19,1.29-19.19,5.61-31.04,4.31c-11.86-1.29-31.91-14.66-38.81-23.28C572.49,700.15,571.19,691.52,567.96,696.05"/>
			<path class="st11" d="M600.35,679.07c0,0.97,0.11,4.1-0.75,6.04c-0.86,1.94-1.51,3.67-1.51,3.67s-0.75-1.19,0-4.31
				C598.84,681.34,600.35,679.07,600.35,679.07 M637.97,733.08c-1.19,0.32-5.61,2.91-7.01,4.64c-1.4,1.72-1.72,2.8-1.72,2.8
				S637.11,734.7,637.97,733.08z M598.73,695.24c-0.54,0.75-0.86,3.66-0.43,4.63C598.73,700.85,599.49,700.85,598.73,695.24z
				 M594.61,695.81c0-0.81-0.49-0.7-0.65-0.05c-0.16,0.65,0,4.42,0,4.74c0,0.32,0.49,0.81,0.86,1.02
				C595.2,701.74,594.56,699.91,594.61,695.81z M600.7,705.56c0,0-2.05-0.43-2.1-0.16c-0.05,0.27-0.43,4.69-0.16,5.88
				c0.27,1.19,1.67,2.86,2.59,3.13c0.92,0.27,1.4,0.32,1.4,0.32S601.08,712.95,600.7,705.56z M559.5,652.88
				c0,0,3.02,4.53,13.69,4.85c10.67,0.32,22.1,0.32,26.3,8.08c4.2,7.76,4.74,14.55,3.34,19.94c-1.4,5.39-1.51,7.22-1.51,7.22
				s0.65,0.54,1.83-0.11c1.19-0.65,2.05-0.11,2.05-0.11s-1.51,4.42-1.4,7.01c0.11,2.59,0.54,4.96,1.94,5.82c0,0-2.16,1.08-2.48,1.94
				c-0.32,0.86,0.75,5.82,2.37,7.87l-2.37,0.86c0,0-2.26,1.29-7.11-1.4c0,0-3.79,0.71-6.36-0.32c0,0,1.94,1.29,4.64,1.62
				c2.69,0.32,3.02,1.51,3.99,1.72c0.97,0.22,3.99,0.32,5.71,1.62c1.72,1.29,5.17,3.13,6.79,3.45c1.62,0.32,10.89,6.79,27.27,1.62
				c16.38-5.17,15.85-5.82,17.79-7.11c1.94-1.29,4.42-1.19,5.93-2.48c1.51-1.29,2.26-2.26,2.26-2.26s-2.26,0.75-3.45,1.62
				c-1.19,0.86-2.26-0.32-3.13-0.32s-3.56,2.8-6.25,2.16c0,0,1.29-3.67,1.62-6.47c0.32-2.8,0.11-4.74,0.11-4.74l3.34-1.08l0.54-1.19
				c0,0,0.21-7.65-0.22-9.49l1.08-3.34c0,0,0-6.04-1.62-9.16c-1.62-3.13-2.16-6.9-0.97-12.72c1.19-5.82,7.65-9.16,12.61-9.38
				c4.96-0.22,9.06,2.26,12.07,2.59c3.02,0.32,2.7,2.05,2.37,3.88c-0.32,1.83-0.5,3.79,6.05,4.81c0,0,1.81,3.06,1.17,8.13
				c-0.65,5.07-1.62,21.67-1.83,24.68c-0.22,3.02,2.8,7.33,2.8,12.07c0,4.74-1.51,9.49-9.49,15.09
				c-7.98,5.61-21.48,18.26-27.1,21.68c-5.62,3.42-8.57,4.57-8.57,4.57s6.35-7.28,10.01-12.02c3.66-4.74,11.86-9.05,15.95-15.95
				c4.1-6.9,7.54-17.68,8.84-22.85c1.29-5.17,1.46-10.62,1.13-9.97c-0.32,0.65-1.51,11.1-10.13,21.13
				c-8.62,10.03-17.25,14.66-20.37,16.82c-3.13,2.16-7.76,4.74-9.27,5.5c-1.51,0.75-2.26,1.29-2.26,1.29s-2.26,0.43-3.99,0.54
				c0,0,3.13-2.7,3.67-4.31c0,0-1.08,0.86-2.8,1.62c-1.72,0.75-3.02,1.08-4.85,3.23c0,0-8.73,0.86-15.74-0.11
				c-7.01-0.97-12.07-4.63-13.8-6.79c-1.72-2.16-6.58-5.17-9.92-7.11c-3.34-1.94-15.2-13.91-17.68-18.43
				c-2.48-4.53-3.45-9.92-3.88-9.81c-0.43,0.11-1.19,10.13,0.54,12.5c1.73,2.37,5.93,7.33,9.27,11.32
				c3.34,3.99,9.92,14.45,13.37,19.19c3.45,4.74,8.17,11.97,8.17,11.97s-24.56-19.19-30.92-24.26c-6.36-5.07-9.06-9.05-9.06-12.72
				c0-3.67,0.22-6.79,1.62-10.56c1.4-3.77,0.22-19.08,0-22.85c-0.22-3.77-0.48-15.25-0.48-15.25s-3.34-2.16-3.56-6.47
				c-0.22-4.31,0-4.96,0-4.96s1.51,4.42,3.34,4.74C562.52,661.5,560.42,659.48,559.5,652.88z"/>
			<path class="st11" d="M611.72,677.78c0.16,1.13,0.22,4.26-1.02,5.39c-1.24,1.13-3.77,4.96-4.31,5.17
				c-0.54,0.22,0.38-1.72,1.08-3.72c0.7-1.99,2.43-3.72,3.02-4.58C611.08,679.18,611.72,677.78,611.72,677.78"/>
			<path class="st11" d="M614.53,679.67c0.11,0.43,0.16,4.74,0.05,6.9c-0.11,2.16-0.75,3.5-0.75,4.74c0,1.24-1.56,4.58-2.26,6.36
				c-0.7,1.78-0.59,8.62-0.38,10.19c0,0-1.72,0.43-1.83,1.83c-0.11,1.4,1.24,6.09,1.99,7.28c0,0-1.46,0.11-2.43-1.51
				c-0.97-1.62-1.89-4.85-1.94-6.79c-0.05-1.94,1.19-2.53,1.35-3.4c0.16-0.86,0.43-8.08,0.43-8.89c0-0.81-0.16-4.31,0.65-5.98
				c0.81-1.67,3.07-4.1,3.83-5.82C613.99,682.85,614.2,679.02,614.53,679.67"/>
			<path class="st11" d="M615.15,710.63c0.32,1.02,1.56,5.44,2.1,6.25c0.54,0.81,1.08,1.62,1.08,1.62s-1.46,0.81-1.94-0.05
				c-0.49-0.86-1.83-5.34-1.99-7.01C614.23,709.77,615.15,710.63,615.15,710.63"/>
			<path class="st11" d="M621.24,711.12c0.05,0.7,1.35,5.39,1.78,6.58c0.43,1.19,0.54,1.19,0.65,1.46c0.11,0.27-0.65,2.21-1.89-0.54
				c-1.24-2.75-2.16-7.65-2.16-7.65L621.24,711.12z"/>
			<path class="st11" d="M620.05,695.7c-0.7,0.38-1.89,2.26-2.05,5.17c-0.16,2.91,0.05,6.41,0,6.74c-0.05,0.32,2.16,0.43,2.96,0.43
				c0,0-0.75-0.7-1.13-2.75c-0.38-2.05-0.43-6.36-0.11-7.98C620.05,695.7,620.91,695.32,620.05,695.7"/>
			<path class="st11" d="M631.32,696.35c0.11,0.65,0.65,5.93,0.65,7.65c0,1.72-0.38,3.56-0.38,3.56s1.56-0.38,1.78-2.26
				c0.22-1.89-0.16-5.39-0.59-6.95C632.34,696.78,631.32,696.35,631.32,696.35"/>
			<path class="st11" d="M639.16,695.78c0.27,0.65,1.02,2.86,1.24,5.88c0.21,3.02-0.22,5.44-0.22,5.44s1.72-0.32,1.89-1.24
				c0.16-0.92-0.43-8.3-1.89-10.89c0,0-1.56-1.02-1.89-1.67c-0.32-0.65-2.86-8.68-7.28-11.91c0,0-0.11,0.49,0.54,2.26
				c0.65,1.78,1.19,8.35,1.08,10.03c-0.11,1.67,1.83,1.4,2.16,3.56C635.12,699.39,638.08,694.17,639.16,695.78"/>
			<path class="st11" d="M641.31,680.64c0.22,0.75,1.24,3.34,1.56,6.52c0.32,3.18-0.32,6.2-0.92,7.06c0,0-0.43,1.19,0.11,1.46
				c0.54,0.27,2.1-1.02,3.02-0.75c0.92,0.27,1.99,1.73,2.37,4.58c0.38,2.86-0.32,7.11-0.32,7.11s0.32,0.81,1.83-0.32
				c1.51-1.13,1.83-6.63,1.51-8.89c-0.32-2.26-2.05-4.58-2.75-5.01c-0.7-0.43-3.18,1.35-3.18,1.35s0.81-3.56,0.59-6.58
				C644.93,684.14,641.1,679.4,641.31,680.64"/>
			<path class="st11" d="M648.11,673.04c0.22,0.59,1.02,4.04,1.4,5.07c0.38,1.02,3.83,4.04,5.17,6.68c1.35,2.64,1.78,7.87,1.56,8.89
				c-0.22,1.02-2.37-0.27-2.96-0.75c-0.59-0.48-2.48-0.65-2.48-0.65s0-4.63-0.43-6.31c-0.43-1.67-2.05-2.96-2.37-5.44
				C647.67,678.05,647.46,671.91,648.11,673.04"/>
			<path class="st11" d="M608.87,746.18c0.22,0.97,1.72,1.72,2.48,1.08c0.75-0.65,1.72-3.56-0.11-4.31
				C611.24,742.94,609.51,744.13,608.87,746.18"/>
			<path class="st11" d="M642.61,747.58c0,0-2.37,0.22-2.26-2.37c0.11-2.59,3.02-2.59,3.66-1.62
				C644.66,744.56,642.61,747.58,642.61,747.58"/>
			<path class="st6" d="M643.07,744.21c-0.7,0-1.94,0.75-1.67,2.21c0.27,1.46,1.83,1.46,2.69,0.59c0.86-0.86,1.43-3.98-1.31-4.01
				C642.78,743,644.13,744.17,643.07,744.21"/>
			<path class="st6" d="M655.84,738.77c0.43-1.19,3.13-4.15,5.34-4.85c0,0-0.05,0.7-0.92,1.56
				C659.4,736.34,656.81,738.34,655.84,738.77"/>
			<path class="st6" d="M611.24,742.94c0,0-1.24,1.62-0.66,2.28c0.58,0.66,0.85,2.17-0.93,3.03c-1.78,0.86-2.8-2.48-1.08-3.99
				C610.3,742.75,611.24,742.94,611.24,742.94"/>
			<path class="st6" d="M673.79,716.94c0.27,0.49,0.54,4.8-1.35,8.08c-1.89,3.29-4.37,5.71-5.01,5.98
				c-0.65,0.27,1.94-2.86,2.75-5.39s2.32-4.47,2.8-5.93C673.46,718.23,673.25,716.67,673.79,716.94"/>
			<path class="st6" d="M681.39,716.78c0.27,0.81,0.48,4.53-0.11,6.09c-0.59,1.56-2.44,2.54-2.44,2.54s1.41-3.3,1.68-5.02
				C680.79,718.66,680.96,717.26,681.39,716.78"/>
			<path class="st6" d="M669.1,735.26c0.97-0.81,5.23-4.26,7.82-9.22c2.59-4.96,3.56-11.48,3.72-12.77c0.16-1.29-2.34,5.19-4.2,6.74
				c0,0,0.27-5.44,0.16-6.25c-0.11-0.81-0.93,2.13-1.62,5.28c-0.69,3.16-3.29,9.27-4.69,11.32c-1.4,2.05,2.16-0.97,2.86-2.75
				c0,0-0.59,2.43-1.78,4.37C670.18,733.92,668.99,734.67,669.1,735.26"/>
			<path class="st6" d="M581.34,726.03c0.69,0.48,2.26,3.56,2.81,5.55c0.55,1.99,1.17,5.76,0.82,5.42
				C584.64,736.65,582.58,730.14,581.34,726.03"/>
			<path class="st6" d="M576.2,720.68c0.75,0.82,3.43,4.73,4.59,7.82c1.16,3.09,2.33,6.03,1.99,5.96c-0.34-0.07-2.13-1.1-3.98-5.76
				C576.96,724.04,576.2,722.67,576.2,720.68"/>
			<path class="st6" d="M572.77,716.08c0.62,0.96,1.87,5.46,2.51,7.57c0.64,2.1,2.36,5.39,2.01,5.19
				C576.96,728.63,571.61,723.42,572.77,716.08"/>
			<path class="st6" d="M570.31,716.02c-0.21,0.89-0.21,4.39,0.14,5.49c0.34,1.1,1.71,2.26,2.4,3.43c0.69,1.17,1.3,1.71,1.17,1.17
				c-0.14-0.55-2.33-5.49-2.6-7.47C571.13,716.63,570.99,715.67,570.31,716.02"/>
			<path class="st6" d="M566.47,705.94c-0.07,0.96-0.75,8.36-0.41,10.42c0.34,2.06,1.99,5.21,2.74,6.03c0,0-0.69-9.39-0.69-10.9
				C568.11,709.98,566.67,704.36,566.47,705.94"/>
			<path class="st6" d="M608.49,736.79c-0.62-1.3-2.81-5.48-4.18-7.06c-1.37-1.58-2.4-3.47-3.22-5.54c0,0,2.04,1.67,2.47,2.32
				c0,0,0-1.92,0-3.43C603.56,723.08,607.01,728.6,608.49,736.79"/>
			<path class="st6" d="M595.81,720.2c0.69,0.14,2.03,1.13,2.69,2.72c0.66,1.59,1.29,3.52,1.29,3.52S596.22,723.9,595.81,720.2"/>
			<path class="st6" d="M594.92,725.48c-0.27-1.44-0.75-2.67-2.26-4.04c-1.51-1.37-4.28-4.22-4.28-4.22s2.7,4.29,3.73,5.52
				C593.14,723.97,594.23,725.34,594.92,725.48"/>
			<path class="st6" d="M608.2,721.91c1.04,0.02,5.79,1.9,9.02,2.71c3.23,0.81,10.24,1.72,18.11-0.32
				c7.87-2.05,16.55-4.53,17.73-4.53c0,0-4.9,2.21-7.33,3.07c-2.43,0.86-12.99,4.2-17.95,4.8c-4.96,0.59-9.05-0.54-12.02-1.89
				C612.8,724.4,608.81,722.68,608.2,721.91"/>
			<path class="st6" d="M613.61,726.61c1.13,0.97,4.85,2.91,9.16,3.29c4.31,0.38,9.38-0.32,9.11-0.22
				c-0.27,0.11-1.35,1.62-4.64,1.67c-3.29,0.05-6.79-0.92-6.79-0.92s1.39,1.11,2.91,1.46c0,0-3.34,0.16-5.17-0.49
				c-1.83-0.65-1.83-0.59-1.83-0.59s1.99,1.62,5.23,2.26s8.52-0.54,11.21-0.75c2.69-0.22,4.8-1.46,8.41-3.45
				c0,0-2.31,0.11-5.17,1.24c-2.86,1.13-3.72,0.92-3.72,0.92s4.69-2.12,6.95-3.34c2.26-1.22,5.93-2.86,5.93-2.86
				s-3.93,0.59-6.2,1.08c-2.26,0.49-6.63,2.05-10.73,2.43c-4.1,0.38-9.7-0.32-11.21-0.86C615.55,726.94,613.61,726.61,613.61,726.61
				"/>
			<path class="st6" d="M619.76,734.37c0.59-0.16,2.91,0.65,6.79-0.16c3.88-0.81,5.61-1.24,6.9-1.13c0,0-4.15,2.37-6.2,3.34
				c-2.05,0.97-4.31,1.13-3.5,0.54c0.81-0.59,5.07-1.99,5.07-1.99s-4.37,1.13-5.88,1.08c-1.51-0.05-1.08-0.81-1.4-0.86
				C621.21,735.13,619.49,735.13,619.76,734.37"/>
			<path class="st6" d="M642.28,734c0-0.81,1.24-4.04,5.17-6.9c0,0-0.86,1.08-1.78,2.69C644.76,731.41,642.66,735.4,642.28,734"/>
			<path class="st6" d="M650.32,725c-0.16,1.08-2.53,4.96-3.45,6.47c-0.92,1.51-2.26,2.26-2.64,2.53c-0.38,0.27,0.22-1.35,2.16-4.31
				C648.32,726.72,650.32,725,650.32,725"/>
			<path class="st6" d="M650.91,729.04c0.49-0.86,2.05-2.48,2.86-5.12c0.81-2.64,1.67-3.45,4.53-5.12c0,0,0.49-0.1-0.81,1.78
				C656.19,722.46,652.58,727.85,650.91,729.04"/>
			<path class="st6" d="M658.08,721.17c-0.54,1.02-2.32,3.72-2.64,4.31c-0.32,0.59-0.54-0.16,0.49-1.72
				C656.94,722.19,658.08,721.17,658.08,721.17"/>
			<path class="st6" d="M614.69,699.61c0,0-1.29,1.99-1.72,3.07c-0.43,1.08-0.81,2.37-0.54,2.05
				C612.69,704.41,614.85,701.39,614.69,699.61"/>
			<path class="st6" d="M614.26,703.6c0.05,0.38-1.19,1.99-1.89,2.48c0,0,0.54-1.44,1.19-2.3
				C614.21,702.91,614.26,703.6,614.26,703.6"/>
			<path class="st6" d="M634.12,691.82c0.16-1.56-0.3-6.28-1.19-7.92c-0.89-1.64-2.48-2.48-2.48-2.48s1.29,2.16,1.83,4.26
				C632.82,687.78,633.47,692.25,634.12,691.82"/>
			<path class="st6" d="M679.46,688.18c0,0.69-0.98,3.38-2.04,5.54c-1.06,2.16-1.59,4.48-2.04,4.69c-0.45,0.2,0.45-5.5,1.1-8.64
				c0.65-3.14,0.69-4.2,1.96-5.83c1.26-1.63,1.79-1.87,1.75-1.59c-0.04,0.29-1.02,3.63-1.39,4.93c-0.37,1.3-1.51,4.03-1.51,4.03
				S678.44,690.09,679.46,688.18"/>
			<path class="st6" d="M675.47,685.93c-0.33-0.2,0.12-2.16,1.14-3.71c1.02-1.55,3.1-2.32,3.67-2.73c0.57-0.41-0.61,1.34-1.67,2.61
				C677.55,683.37,676.28,685.12,675.47,685.93"/>
			<path class="st6" d="M680.44,672.97c-0.2,0.53-1.47,3.14-3.55,4.36c-2.08,1.22-3.3,1.55-3.06,1.59c0.24,0.04,1.47,0.29,2.2,0.08
				c0,0-0.29,0.61-0.73,1.51c-0.45,0.9-0.77,1.87-0.57,2c0.2,0.12,1.88-1.92,2.93-3.18c1.06-1.26,2.16-3.18,2.73-4.85
				C680.97,672.81,680.97,672.61,680.44,672.97"/>
			<path class="st6" d="M679.3,672.85c-0.37,0.33-2.12,2.12-3.3,2.73c-1.18,0.61-2.49,1.51-2.45,1.83c0.04,0.33,1.47,0.65,3.02-0.73
				C678.12,675.3,680.07,672.57,679.3,672.85"/>
			<path class="st6" d="M573.94,688.58c2.04,2.2,2.45,2.45,2.45,3.59c0,1.14,0.24,12.55,0.73,14.92c0.49,2.36,1.88,3.99,1.47,4.65
				c-0.41,0.65-2.93-3.59-3.26-7.42c-0.33-3.83-0.49-11.58-0.73-12.88C574.35,690.13,573.94,688.58,573.94,688.58"/>
			<path class="st6" d="M572.3,684.46c0.23,0.88,0.97,2.41,2.41,3.48c1.44,1.07,2.13,0.74,2.09,0.37S574.55,686.57,572.3,684.46"/>
			<path class="st6" d="M573.41,684.42c-0.28-0.88-1.9-3.06-2.13-3.15c-0.23-0.09-0.6,0,0.23,1.07
				C572.35,683.4,573.41,684.42,573.41,684.42"/>
			<path class="st6" d="M576.94,686.83l0.05-2.09c0,0-2.37-1.85-3.62-3.34c-1.25-1.48-2.46-3.01-2.36-2.69
				c0.09,0.33,1.25,2.64,2.46,4.31C574.67,684.7,575.55,685.99,576.94,686.83"/>
			<path class="st6" d="M576.89,683.63c-0.65-0.6-3.39-3.52-4.5-4.96c-1.11-1.44-1.62-2.78-1.39-2.64c0.23,0.14,2.13,2.13,1.99,1.53
				c-0.14-0.6-1.48-1.62-1.62-2.97c-0.14-1.34,2.74,2.88,3.76,4.5c1.02,1.62,2.32,3.2,2.41,3.43c0.09,0.23-1.72-1.62-2.27-1.9
				C574.71,680.34,577.36,683.54,576.89,683.63"/>
			<path class="st6" d="M572.35,672.69c0.65,0.14,2.88,1.62,3.8,3.01c0.93,1.39,1.62,4.04,1.3,3.94c-0.32-0.09-2.46-2.46-3.62-4.08
				C572.67,673.94,571.61,672.5,572.35,672.69"/>
			<path class="st6" d="M597.27,681.01c0.08,0.69-1,3.2-1,4.4c0,1.2-0.27,3.16-1.16,2.78c-0.89-0.39-0.27-4.63,0.62-5.87
				C596.61,681.09,596.81,680.85,597.27,681.01"/>
			<path class="st6" d="M674.47,663.83c0.33-0.53,2.95-1.45,5.37-1.46c2.42-0.01,4.04-0.27,4.04-0.27s-2.78,2.52-5.83,2.58
				C675,664.76,674.47,663.83,674.47,663.83"/>
			<path class="st6" d="M673.94,659.49c0,0-1.99-1.95-7.95-1.02c-5.96,0.93-9.67,4.7-7.75,6.43c1.92,1.72,4.64-0.33,5.3-2.32
				C664.2,660.58,669.83,659.39,673.94,659.49"/>
			<path class="st6" d="M673.48,662.64c0,0-2.58,1.52-5.76,3.05c-3.18,1.52-5.23,4.44-6.89,7.75c-1.66,3.31-2.58,4.9-2.65,5.9
				c-0.07,0.99-0.73-2.72-0.13-6.03c0,0-1.38,0.87-1.79,3.78c-0.4,2.91-0.4,3.25-1.06,2.32c-0.66-0.93-1.26-3.38,0.33-6.82
				c1.59-3.45,1.92-4.37,5.23-5.9C664.07,665.15,669.3,662.5,673.48,662.64"/>
			<path class="st6" d="M567.35,660.81c0.37,0.61,1.47,2.75,3.54,3.66c2.08,0.92,5.8-0.43,8.18,0.3c0,0-1.89-1.65-5.07-2.01
				C570.84,662.4,569.8,662.22,567.35,660.81"/>
			<path class="st6" d="M579.81,661.36c1.34,0.12,5.01,1.28,7.63,2.56c2.63,1.28,4.21,3.72,5.74,4.03c1.53,0.31,3.36-2.44-0.37-4.03
				S582.38,661,579.81,661.36"/>
			<path class="st6" d="M596.48,678.64c0-0.79-0.18-3.42-1.1-6.05c-0.92-2.63-2.26-3.91-2.26-3.91s0.61,0.06,1.95,1.22
				c1.34,1.16,1.59,0.79,0.92-0.24c-0.67-1.04-1.28-1.89-0.12-1.34c1.16,0.55,2.2,1.71,3.11,5.19c0.92,3.48,0.67,3.66,0.67,3.66
				l-2.56-2.87C597.09,674.31,597.76,678.7,596.48,678.64"/>
			<path class="st6" d="M577.25,662.16c0,0,3.79-0.31,9.4,3.05c5.62,3.36,6.29,4.64,7.39,6.78c1.1,2.14,1.34,7.45,1.34,7.45
				s-0.85-2.01-3.17-4.88c-2.32-2.87-4.03-5.31-7.02-7.82C582.19,664.23,577.86,662.58,577.25,662.16"/>
			<path class="st6" d="M602.55,647.26c0,0-1.79,3.59-1.39,5.71c0.41,2.12,4.56,10.51,5.46,11.41c0,0-0.33-4.73-0.98-7.91
				c-0.65-3.18-1.39-4.4-1.39-4.4l-0.33,4.56c0,0-1.06-2.85-1.3-4.97C602.39,649.54,602.55,647.26,602.55,647.26"/>
			<path class="st6" d="M606.47,649.78c0,0-0.08-5.54-0.24-7.42c-0.16-1.88,0.73-1.96,1.22,0.16
				C607.93,644.65,607.61,648.56,606.47,649.78"/>
			<path class="st6" d="M607.04,651.49c0,0,3.1-2.36,3.99-8.31c0.9-5.95-0.65-10.11-1.79-10.51c-1.14-0.41-2.69,5.79-2.2,6.93
				c0.49,1.14,2.12,3.02,1.88,5.62C608.67,647.83,607.04,651.49,607.04,651.49"/>
			<path class="st6" d="M638.54,634.74c0,0,0.25,3.59,1.55,5.95c1.3,2.36,3.42,6.44,4.56,7.74c1.14,1.3,1.79,1.3,1.71,0.65
				c-0.08-0.65-2.2-5.79-2.45-6.77c0,0,3.34,4.16,5.38,4.65c0,0-1.96-2.53-3.59-6.28c-1.63-3.75-2.12-5.79-3.1-6.85
				c-0.98-1.06-1.96-3.75-2.12-3.18c-0.16,0.57,0.08,7.83,0.08,7.83S639.11,634.09,638.54,634.74"/>
			<path class="st6" d="M602.98,596.45c0,0,3.67,1.55,7.74,4.65c4.08,3.1,8.07,4.97,8.07,4.97s-0.33-1.22-0.33-2.28
				c0,0,1.63,0.49,2.53,0.65c0.9,0.16,0.65-0.41-0.9-2.12c-1.55-1.71-2.93-3.1-2.93-3.1l0.16,1.22c0,0-3.02-2.77-4.4-3.1
				c0,0,0.57,1.63,1.79,2.53c1.22,0.9,2.85,2.61,2.28,2.45c-0.57-0.16-5.38-3.34-6.93-4.32
				C608.52,597.02,606.49,596.45,602.98,596.45"/>
			<path class="st6" d="M571.72,645.24c0.61,0.61,4.77,2.61,10.84,2.24c6.07-0.37,9.5-2.24,13.65-7.66
				c4.16-5.42,4.97-7.91,5.54-9.25c0.57-1.34,1.43-4.2,1.43-4.48c0-0.29-1.26,2.53-2.57,4.36c-1.3,1.83-5.75,6.52-7.83,8.19
				s-3.14,2.97-3.55,3.5c-0.41,0.53,2.24-1.22,3.67-2.24c1.43-1.02,2.69-1.96,3.02-2.36c0.33-0.41-2.95,4.75-6.72,6.4
				c-3.78,1.65-4.81,1.51-4.81,1.51s2.98-1.47,3.55-2.65c0,0-2.65,1.06-4.32,1.67c-1.67,0.61-5.34,1.14-7.54,1.14
				C573.88,645.61,571.72,644.71,571.72,645.24 M602.61,631.99c-0.57,1.3-4.03,7.58-5.09,9.09c-1.06,1.51-2.81,4.44-2.89,4.73
				c-0.08,0.29,4.65-4.08,6.36-8.03C602.7,633.83,603.23,631.34,602.61,631.99z M656.6,633.11c1.02,0.77,4.28,3.46,7.46,4.65
				c3.18,1.18,7.09,2.73,7.79,3.14c0.69,0.41-3.22-0.16-6.03-1.02C662.99,639.02,656.76,634.25,656.6,633.11z M682.88,643.26
				c-0.65-0.12-6.07,0-9.29,0c-3.22,0-10.51-2.08-13.57-3.99c-3.06-1.92-6.48-4.61-8.48-7.09c-2-2.49-2.2-2.45-1.26-1.02
				c0.94,1.43,1.96,2.97,2.77,4.2c0.82,1.22,5.05,4.48,6.89,4.93c1.83,0.45,4.24,2.04,7.3,2.61c3.06,0.57,4.77,0.82,5.99,0.94
				c1.22,0.12,4.8,0.27,6.24-0.08C680.89,643.4,682.32,643.22,682.88,643.26z M660.35,641.26c0.65,0.45,3.46,2.65,4.36,2.77
				c0.9,0.12,2.4,0.65,3.71,1.14c1.3,0.49,5.42,0.9,6.93,1.18c1.51,0.29,5.22-0.82,5.22-0.82s-6.72-0.04-8.72-0.33
				c-2-0.29-4.57-1.1-6.56-1.96C663.28,642.41,660.35,641.26,660.35,641.26z M654.8,638.17c0.61,1.1,2.85,5.18,5.67,6.6
				c2.81,1.43,3.42,1.67,6.03,2.45c2.61,0.77,8.56,0.33,9.37,0.16c0.82-0.16-0.94-0.16-3.71-0.41c-2.77-0.25-6.85-1.3-8.64-2.04
				c-1.79-0.73-4.08-3.06-5.46-4.24C656.68,639.51,654.8,638.17,654.8,638.17z M648.16,630.79c0,0.69,0.77,4.08,2.73,7.34
				c1.96,3.26,2.73,4.4,4.16,4.97c1.43,0.57-0.45-0.98-2.04-3.91C651.42,636.25,649.55,632.26,648.16,630.79z M613.62,616.22
				c0,0,1.26-2.12,4.48-4.12c3.22-2,7.46-3.34,10.88-2.32c3.42,1.02,6.86,3.44,8.6,6.97c0,0-2.45-1.63-3.1-2.08
				c-0.65-0.45,1.14,1.3,2.04,3.1c0.9,1.79,0.57,2.16,0.57,2.16s-2.2-2.73-3.63-2.93c0,0,0.41,1.18,1.79,2.85
				c1.39,1.67,1.39,3.79,1.39,3.79s-1.46-2.09-3.67-2.36c0,0,0.57,0.53,1.43,1.88c0.86,1.34,0.86,1.88,0.86,1.88
				s-1.26-1.71-3.75-1.39c0,0,1.71,1.22,2.98,2.89c1.26,1.67,1.59,2.28,1.43,3.38c-0.16,1.1-0.98,1.22-0.98,1.22s0.16-1.1-0.57-2.08
				c-0.73-0.98-1.88-2.45-4.08-3.3c-2.2-0.86-3.22,0.2-3.95,0.29c-0.73,0.08-1.47-0.45-1.87-0.69c-0.41-0.24-3.34,0.49-4.28,1.35
				c-0.94,0.86-2.89,3.14-3.38,3.38c-0.49,0.24-1.47-1.55-1.67-4.77C614.92,622.09,613.58,618.46,613.62,616.22z M556.11,613.16
				c1.47-1.88,4.73-5.95,6.52-7.91c1.79-1.96,5.22-4.08,9.46-5.05c0.49-0.11,1.02-0.21,1.57-0.3c0.23-0.41,0.58-0.95,1.02-1.52
				c0.9-1.14,1.26-2.77,1.26-4.52c0-1.75-1.26-4.16-2.28-4.97c-1.02-0.81-1.14-2.36-0.49-4.81c0.65-2.45,2.69-4.93,2.69-4.93
				s-1.02-1.3-2.12-2.85c-1.1-1.55-4.16-7.5-4.69-8.44c0.94,1.18,3.26,4.32,4.4,5.79c1.14,1.47,3.91,4.57,3.83,5.3
				c-0.08,0.73-0.41,2.85-2,4.97c-1.59,2.12-1.51,3.26-0.98,4.4c0.53,1.14,2.49,3.75,2,6.85c-0.49,3.1-2.04,4.65-2.04,4.65
				c4.02-0.54,8.75-0.43,8.75-0.43s-5.85,1.03-9.59,1.78c-0.06,0.56-0.05,1.28,0.38,1.57c0.68,0.45,1.99,2.03,2.7,3.75
				c1.87-0.49,4.05-0.99,6.61-1.49c10.03-1.96,9.7-2.45,13.86-2.45c4.16,0,5.05,0.49,6.77,0.9c1.71,0.41,4.64,3.7,6.52,7.99
				c1.88,4.29,1.64,3.99,1.64,3.99s2.28-2.93,3.66-4.07c1.39-1.14,6.19-2.69,8.4-3.5c2.2-0.82,7.99,0.41,10.27,2.28
				c2.28,1.88,2.61,2.85,3.75,3.59c1.14,0.73,1.71,2.12,1.71,2.12s2.77-8.72,6.77-11.17c3.99-2.45,11.09-1.47,16.06-0.49
				c4.97,0.98,18.18,2.77,22.74,5.79c4.56,3.02,7.5,10.03,7.99,11.66c0.49,1.63,0.08,5.22-0.25,6.76c-0.33,1.55-1.06,4.57,1.06,1.06
				c2.12-3.51,2.53-9.05,2.61-10.27c0.08-1.22,0.82,3.02,0.82,5.3c0,2.28,0.16,5.14,0.98,3.02c0.81-2.12,1.06-4.32,1.06-4.32
				s0.57,4.81-0.16,6.36c-0.73,1.55-1.55,3.75-2.45,4.57c-0.9,0.81-0.73,0.24-0.98-3.1c0,0-2.85,2.85-4.4,3.42
				c0,0-3.59,10.35-7.01,12.39c-3.42,2.04-8.72,4.81-14.35,4.08c-5.62-0.73-10.92-4.73-11.82-5.05c0,0,3.26,3.1,6.36,4.48
				c3.1,1.39,4.48,1.47,4.48,1.47s-4.65,1.06-10.43-2.85c-5.79-3.91-6.77-4.56-8.48-8.07c-1.71-3.5-3.1-8.64-3.1-8.64
				s0.73,7.58,2.53,11c0,0-2.36-2.2-3.67-6.68c-1.3-4.48-1.63-4.89-2.93-5.79c-1.3-0.9-1.55-0.73-2.12-3.1
				c-0.57-2.36-0.9-3.42-0.57-3.91c0.33-0.49,1.63,4.08,3.67,5.38c0,0-1.22-5.3-2.69-8.31c-1.47-3.02-1.71-3.18-1.71-3.18
				s-0.65,4.16-0.65,6.6c0,2.45,0.49,4.89-0.98,8.64c0,0,0-2.69-0.33-3.59c-0.33-0.9-0.82-1.88-0.82-1.88s-0.41,8.07,0.41,9.86
				c0.82,1.79,2.58,5.04,3.49,10.27c0.91,5.22,2.7,8.24,2.95,12.23c0.25,3.99-0.81,8.23-4.08,10.68c-3.26,2.45-5.79,3.34-7.99,2.61
				c-2.2-0.73-3.1-2.93-3.1-3.91c0-0.98,0.65,2.53,5.22-0.08c0,0-2.04-0.33-2.93-0.73c-0.9-0.41-1.55-2.93-2.12-3.42
				c0,0,2.69,1.71,4.73,0.73c2.04-0.98,2.2-2.2,2.2-2.2s-3.42,1.06-5.05,0.08c-1.63-0.98-2.85-3.83-3.26-6.28
				c-0.41-2.45-0.98-6.2-1.55-6.36c-0.57-0.16-1.63,6.77-2.2,8.64s-0.82,3.02-2.69,3.42c-1.88,0.41-4.89,0-5.71-0.57
				c-0.82-0.57-2.53-3.34-2.85-4.73c0,0-0.33,1.47,0.9,3.5c1.22,2.04,1.71,3.75,4.48,4.16c2.77,0.41,5.71-1.96,6.2-2.93
				c0,0-0.49,2.2-0.98,3.42c-0.49,1.22-1.39,2.77-2.53,2.93c-1.14,0.16-2.04,0.73-1.55,0.9c0.49,0.16,2.53,0.08,3.18-0.24
				c0.65-0.33,2.12-1.55,2.61-2.77c0.49-1.22-1.22,6.03-4.97,6.77s-8.97-3.59-9.94-6.36c-0.98-2.77-0.86-11.58,0.59-15.82
				c1.45-4.24,3.32-10.43,3.49-14.02c0.16-3.59-1.63-3.59-1.47-8.07s0.41-8.64,0-11.49c0,0-2.85,7.91-4.08,10.19
				c0,0,1.88-0.65,2.53-2.93c0,0,0.49,2.85-0.98,4.57c-1.47,1.71-2.04,1.63-2.93,4.4c-0.9,2.77-4.56,6.6-4.97,7.25
				c0,0,0.41-2.36,1.22-4.73c0,0-2.85,5.79-4.89,7.91c-2.04,2.12-5.95,4.73-8.72,5.71s-4.32,0.65-4.32,0.65s4.65-1.79,6.52-3.91
				c0,0-4.56,1.79-8.64,2.28c-4.08,0.49-6.44,0.49-6.03,0.73c0.41,0.24,4.97,0.9,6.6,0.49c0,0-4.81,2.61-12.06-0.82
				c-7.25-3.42-10.03-9.86-10.84-12.23c-0.82-2.36-1.3-2.85-2.28-3.91c-0.98-1.06-3.12-3.61-3.12-3.61s-0.06,1.24,0.43,3.2
				c0.49,1.96,0.65,4.32,0.65,4.32s-3.18-5.05-3.42-9.7c-0.24-4.65,0.49-8.56,0.81-7.66c0.33,0.9,1.3,7.74,5.22,11.82
				c0,0-0.73-2.93-0.57-6.11c0.16-3.18,0.41-4.73,2.28-8.15c1.88-3.42,3.51-5.71,5.79-7.09c1.58-0.96,4.11-2.2,8.85-3.52
				c-0.17-0.49-0.38-0.89-0.64-1.11c-1.09-0.93-3-2.29-2.64-4.24c-0.44,0.09-0.82,0.18-1.11,0.25c-2.58,0.62-7.5,4.24-8.72,5.54
				C561.08,608.52,556.11,613.16,556.11,613.16z"/>
			<path class="st6" d="M646.33,590.89c0,0-3.99,2.93-5.87,4.08s-2.77,1.88-3.75,4.65c-0.98,2.77-1.63,5.22-1.06,5.05
				c0.57-0.16,1.45-2.9,3.34-4.89C640.88,597.78,643.15,593.99,646.33,590.89"/>
			<path class="st6" d="M644.21,594.88c0.49-0.65,2.04-2.61,5.13-5.05c3.1-2.45,8.31-4.48,11.17-5.05
				c2.85-0.57,7.17-1.79,10.76-1.39c0,0-8.07,1.96-12.72,4.32c-4.65,2.36-12.72,9.13-13.2,9.37c-0.49,0.25,3.65-4.5,6.3-6.17
				c0,0-0.9,0.29-3.71,2.04C645.12,594.7,643.86,595.47,644.21,594.88"/>
			<path class="st6" d="M677.81,585c1.02,0.33,5.91,4.56,7.5,5.95c1.59,1.39,4.32,4.97,4.16,4.52c-0.16-0.45-0.94-3.02-3.83-5.87
				C682.74,586.75,678.63,584.76,677.81,585"/>
			<path class="st6" d="M699.23,605.64c0,0-4.48-4.57-3.99-11.58c0.49-7.01,1.3-9.54,3.5-15.08c2.2-5.54,1.88-7.83,3.75-11.33
				c1.87-3.51,2.77-4.56,2.77-4.56s-0.08,2.36-0.65,4.97c-0.57,2.61-1.06,8.07,0,10.11l0.08-6.11c0,0,0.57,1.55,0.73,3.99
				c0.16,2.45,0.82,8.48,1.14,10.84c0.33,2.36,0.41,6.36,0.33,6.93c-0.08,0.57-1.47-3.51-1.96-7.58l-0.08,8.31
				c0,0-1.63-9.7-1.88-14.92c0,0,0,8.72,0.57,14.02c0.57,5.3,0.9,6.68,0.57,8.72c0,0-1.22-3.67-1.39-7.83
				c-0.16-4.16-0.57-16.71-0.73-17.28c-0.16-0.57-0.49,8.15-0.33,14.92c0.16,6.77,1.06,10.52,1.71,12.8
				c0.65,2.28,0.49,4.24,0.49,4.24s-2.53-5.38-3.26-9.21c-0.73-3.83-0.16-15.57-0.41-15.08c-0.24,0.49-1.55,6.36-1.55,10.84
				S699.8,604.75,699.23,605.64"/>
			<path class="st6" d="M692.83,559.71c0,0-5.05,3.75-6.44,5.87c-1.39,2.12-5.54,7.17-5.79,8.4c-0.24,1.22,6.99-6.57,7.91-9.05
				C689.43,562.45,692.83,559.71,692.83,559.71"/>
			<path class="st6" d="M687.37,568.84c1.39-0.98,5.22-4.73,7.58-6.52c2.36-1.79,6.93-5.54,7.42-6.44c0.49-0.9-4.73,1.71-7.74,4.32
				C691.61,562.81,686.39,569.33,687.37,568.84"/>
			<path class="st6" d="M691.77,567.13c0.82-0.57,3.59-2.61,4.08-3.51C696.33,562.73,692.99,565.42,691.77,567.13"/>
			<path class="st6" d="M560.7,537.38c-1.55,1.39-3.99,6.36-3.99,7.34C556.7,545.69,560.21,538.76,560.7,537.38"/>
			<path class="st6" d="M560.53,541.04c0.41-1.06,1.39-2.61,2.28-3.83c0.9-1.22,1.82-2.59,2.45-2.28
				C565.89,535.24,561.57,539.07,560.53,541.04"/>
			<path class="st6" d="M592.08,520.18c0,0-2.3,0.94-5.14,2.36c-1.59,0.8-3.35,1.75-4.97,2.78c-4.48,2.85-8.15,4.32-10.27,4.56
				c-2.12,0.24-5.07,2.06-5.3,3.42c-0.22,1.36-2.53,5.22-2.53,5.22s2.93-3.75,4.4-5.05c1.47-1.3,10.11-2.94,11.82-4.24
				c1.71-1.3,5.54-4.77,8.23-6.68C591.02,520.62,592.08,520.18,592.08,520.18"/>
			<path class="st6" d="M585.59,675.66c0.43,1.23,1.05,3.94,1.29,7.7c0.25,3.76,0.19,4.75,0.19,4.75s2.84,1.42,3.33-0.8
				C590.89,685.09,588.55,677.57,585.59,675.66 M666.83,675.96c-0.86,0.19-4.68,3.14-5.12,6.9c-0.43,3.76-0.12,5.86-0.12,5.86
				s3.33,0.37,3.14-1.97c-0.18-2.34-0.31-3.45,0.56-5.79C666.15,678.62,666.83,676.58,666.83,675.96z M590.44,690.38
				c0,0-2.22-0.44-3.15,0.71c-0.93,1.16-1.2,4.44-0.93,5.24c0.27,0.8,1.11,1.91,2.84,2.75c0,0-0.49-2.71-0.18-4.75
				C589.33,692.29,589.68,691.58,590.44,690.38z M586.84,699.62c0,0,0.04,5.42,0.27,6.22s0.84,2.18,1.07,2.18
				c0.22,0,0.62-7.51,0.62-7.51S587.41,699.44,586.84,699.62z M591.68,691.49c0.44,0.44,1.07,0.93,0.89,1.96
				c-0.18,1.02-0.62,3.11-0.62,4.93c0,1.82-0.31,2.09-1.11,1.64c-0.8-0.44-1.29-3.78-1.02-5.42
				C590.08,692.95,591.32,691.22,591.68,691.49z M589.99,701.13c0.53,0,1.64,0.67,1.78,1.07c0.13,0.4-0.4,4.49-0.18,6.13
				c0.22,1.64,0.67,2.09,0.8,2.53c0.13,0.44-3.38,0.84-3.07-1.82C589.64,706.37,590.04,703.79,589.99,701.13z M596.97,703.44
				c-0.4-0.71-1.07-2.89-1.11-6c-0.04-3.11-0.53-3.78-1.42-4.09c-0.89-0.31-1.64,3.78-1.51,6
				C593.06,701.57,594.61,703.57,596.97,703.44z M595.9,705.31c0,0.67-0.18,6.44-0.18,6.44s-2.04-1.33-2.58-3.82
				c-0.53-2.49-0.27-4.62-0.04-4.67C593.32,703.22,594.52,704.2,595.9,705.31z M600.7,694.64c0.22,0.93,0,6.93-0.09,7.69
				c-0.09,0.75-1.11,1.2-2.22-0.4c-1.11-1.6-1.51-2.8-1.24-5.46C597.41,693.8,599.28,691.58,600.7,694.64z M597.23,705.39
				c0,0,1.33,0.44,3.07,0.44c0,0-0.22,3.87,0.44,5.91c0.67,2.04,0.84,2.31,0.84,2.31s-1.95,0.62-3.2-0.75
				C597.15,711.93,597.23,710.42,597.23,705.39z M601.86,706.06c0,0-0.01,5.34,1.42,7.51c1.43,2.17,3.78,2.36,4.04,1.16
				s-0.8-3.73-1.07-5.07s-0.36-2.49-0.36-2.49S604.25,708.11,601.86,706.06z M607.72,696.6c0.13,1.2,0.18,6.62-0.18,7.11
				c-0.36,0.49-2.8,1.82-3.64,1.87c-0.84,0.04-2.09-1.11-2.04-5.15c0.04-4.04,0.44-6.44,1.6-6.84
				C604.61,693.18,607.41,694.51,607.72,696.6z M609.32,697.62c0,0-0.04,7.91,0,8.53c0.04,0.62,1.91,1.78,4,1.42
				c2.09-0.36,1.82-0.76,2.04-1.82c0.22-1.07,0.27-7.24,0.27-7.24s-2.02-2.54-3.55-3.73C610.54,693.58,609.32,697.62,609.32,697.62z
				 M611.85,708.95c-0.53,0-1.91-0.09-2.67-0.71c-0.76-0.62-1.6-0.84-1.6-0.4c0,0.44,0.44,6,1.73,7.38
				c1.29,1.38,3.07,1.55,3.47,0.89C613.19,715.44,612.21,713.48,611.85,708.95z M613.5,708.86c0,0,3.38,1.02,3.69,1.11
				c0.31,0.09,1.11,5.64,1.64,6.89c0,0-1.42,3.91-3.6,0.09C613.05,713.13,613.5,708.86,613.5,708.86z M625.05,710.68
				c0,0-4.75,0.04-5.91-0.4c0,0-0.27,0.58,0.22,2.84c0.49,2.27,1.64,7.06,3.51,7.38c1.87,0.31,2.35-3.02,2.35-3.91
				C625.23,715.7,625.05,710.68,625.05,710.68z M627.14,710.99c0,0.49-0.18,8.26-0.09,8.93c0.09,0.67,0.93,1.78,2.22,0.13
				c1.29-1.64,2.98-4.31,3.47-6.75c0.49-2.44,0.22-3.11,0.22-3.11S629.67,710.99,627.14,710.99z M638.47,709.22
				c0,0-0.44,5.02-1.69,6.98c-1.24,1.96-3.02,1.69-3.55,1.42c-0.29-0.14,0.17-2.12,0.59-4c0.36-1.62,0.68-3.18,0.75-3.42
				C634.69,709.66,636.2,709.48,638.47,709.22z M644.07,707.31c0,0-0.44,5.02-1.33,6.84c-0.89,1.82-2.31,2.8-3.29,2.04
				c-0.98-0.75-0.18-2.44,0.22-4.27c0.4-1.82,0.35-3.07,0.35-3.07S641.8,709.04,644.07,707.31z M616.82,707.94
				c0,0,1.48,0.81,4.21,1.05c2.73,0.24,3.78-0.05,3.97-0.67c0.19-0.62,0.1-6.31-0.24-8.37c-0.33-2.06-1.87-5.21-3.64-5.5
				c-1.77-0.29-3.54,3.21-3.87,5.79C616.91,702.82,616.82,707.94,616.82,707.94z M627.29,699.04c0,1.05-0.14,8.94-0.1,9.33
				c0.05,0.38,2.3,0.91,5.26,0.33c2.96-0.57,2.2-0.77,2.34-2.3c0.14-1.53-0.67-8.37-1.58-10
				C632.31,694.78,630.93,692.92,627.29,699.04z M636.47,699.66c-0.24,1.2-0.1,5.02,0.34,6.36c0.43,1.34,1.29,1.58,2.82,1.53
				c1.53-0.05,3.11-1,3.3-2.58c0.19-1.58-0.14-6.22-0.96-8.18C641.16,694.83,638.17,693,636.47,699.66z M643.55,696.65
				c0.05,0.57,0.67,3.59,0.91,5.45c0.24,1.87,0.38,2.87,0.38,2.87s2.58,2.25,3.54,0.76c0.96-1.48,1.46-2.42,1.29-6.74
				c-0.16-4.33-1.91-5.88-2.39-5.74C646.8,693.4,644.22,695.36,643.55,696.65z M651.49,693.83c0,0.62,0.43,5.26,0.29,7.08
				c-0.14,1.82-0.24,2.63-0.24,2.63s1.43,0.38,2.2-0.96c0.76-1.34,0.67-4.5,0.67-5.84c0-1.34-1.29-3.25-2.06-3.44
				C651.59,693.11,651.49,693.83,651.49,693.83z M645.61,707.55c0.33,0.19,3.16,0.34,3.83-0.24c0,0,0.19,4.5-0.91,6.55
				c-1.1,2.06-3.37,1.86-4.4,0.57c0,0,0-0.62,0.53-1.58C645.18,711.91,645.66,708.46,645.61,707.55z M651.25,705.45
				c0,1.1-0.43,6.6-0.86,7.7c-0.43,1.1-0.43,1.24-0.43,1.24s1.77,0.96,3.01-0.43c1.24-1.39,1.53-2.25,1.63-4.3
				c0.1-2.06-0.14-4.21-0.14-4.21S652.11,705.45,651.25,705.45z M661.68,701.48c0.33,0.48,1,3.92,0.81,6.6
				c-0.19,2.68-2.01,4.11-2.68,4.11c-0.67,0-0.57-1.2-0.05-2.77c0.53-1.58,1.2-4.54,0.1-6.26
				C659.86,703.15,660.44,701.53,661.68,701.48z M663.88,706.84c0.48-0.33,1.15-0.77,1.34-2.82c0.19-2.06-0.24-4.5-0.24-4.5
				s-1.82,1.2-1.82,1.67C663.16,701.67,663.98,705.02,663.88,706.84z M657.33,693.06c0.48,0.96,1.24,3.21,1.34,5.74
				c0.1,2.54-0.05,3.01-0.05,3.01s-2.3,1-2.73,1.39c-0.43,0.38,0.57-4.21,0.19-7.75C656.08,695.45,657.28,694.11,657.33,693.06z
				 M658.95,693.3c0.14-0.72,1.2-1.91,1.77-1.82c0.57,0.1,1.29,2.92,1.39,4.54c0.1,1.63-1.15,3.64-1.39,3.49
				C660.48,699.38,659.81,694.69,658.95,693.3z M662.2,690.53c0.43,0.91,1.15,4.11,1.2,5.88c0.05,1.77-0.24,2.92,0.1,2.73
				c0.33-0.19,1.96-0.67,2.1-4.02C665.74,691.77,664.31,689.48,662.2,690.53z M690.69,667.61c0,0-2.32,1.55-5.81,1.45
				c-3.49-0.1-7.32-1.57-9.48-2.26c-2.16-0.69-4.93,0.57-6.68,1.22c-1.75,0.65-4.36,2.36-5.09,3.99c0,0,3.51-2.45,6.36-2.65
				c0,0,0.08,0.33-1.79,2.16s-7.66,7.13-8.07,11.05c-0.41,3.91-0.33,4.97-0.08,5.79c0.24,0.81,0.16,1.59,0.16,1.59
				s-1.3,0.41-1.79,1.71c0,0-0.73-1.79-1.39-2.16c-0.65-0.37-0.38,1.01-0.57,1.75c-0.19,0.74-0.41,2.16-1.43,2
				c-1.02-0.16-1.75-1.92-3.42-1.34c0,0,0.24-3.75-0.61-6.28c-0.86-2.53-2.18-3.51-2.73-6.28c-0.55-2.77-0.55-2.77-0.55-2.77
				s-0.8,4.11,0.39,6.35c1.18,2.24,2.04,3.79,1.79,6.4c-0.25,2.61-0.33,4.36-0.33,4.36s-1.3-1.91-1.79-2.24
				c-0.49-0.33-2.77,1.06-3.87,2.24c-1.1,1.18-1.31,1.53-1.94,0.52c-0.63-1.01-3.15-1.66-3.97-0.6c-0.82,1.06-2.16,2.28-2.32,2.65
				c-0.16,0.37-1.06-2.97-3.71-3.59c-2.65-0.61-5.42,3.26-5.79,4.77c0,0-2.16-3.3-3.38-4.28c-1.22-0.98-4.2-0.08-5.79,1.96
				c0,0-0.53,0.98-1.06,0.57c-0.53-0.41-2.32-2.93-3.95-2.73c-1.63,0.2-2.14,1.6-2.69,1.59c-0.55-0.01-2.24-2.69-4.48-2.85
				c-2.24-0.16-3.15,1.48-3.32,1.38c-0.17-0.1-1.85-0.9-2.63-2.6c0,0-0.45-0.33-0.45,0.73c0,1.06-1.26,3.1-2.36,1.63
				c-1.1-1.47-0.29-4.04-0.29-4.04s-1.43,1.96-1.79,3.26c0,0-0.37-0.04-0.53-0.61c-0.16-0.57-0.9-1.43-1.71-1.79
				c0,0,0.73-3.87,0.57-7.09c-0.16-3.22-1.22-3.42-2.65-5.38c-1.43-1.96-3.22-4.48-4.56-5.5c-1.34-1.02-3.38-2.65-3.38-2.65
				s-0.04-0.81,2.61,0.41c2.65,1.22,3.34,2.45,3.34,2.45s-1.39-3.46-5.66-5.22c-4.28-1.75-9.5,1.39-11.98,2.08
				c-2.49,0.69-7.83,0.24-12.43-2.97c-4.61-3.22-11.09-9.21-12.06-11.94c-0.98-2.73,0.49-3.79,2.53-2.97
				c2.04,0.81,5.46,0.65,6.48-2.53c1.02-3.18,0.69-6.77-0.29-9.66c-0.98-2.89-3.46-8.27-3.34-11.9c0.12-3.63-0.24-11.33,1.14-16.26
				c1.39-4.93,3.87-8.48,5.5-10.76c1.63-2.28,4.93-5.66,5.58-6.48c0.65-0.82,0.73-1.02-0.16-0.61c-0.9,0.41-5.58,2.93-6.97,3.63
				c0,0-0.65,0.94-0.61-0.9c0.04-1.83-1.14-12.51-2.53-17.85c-1.39-5.34-2.65-8.6-3.42-9.9c-0.77-1.3-1.34-3.5-0.65-5.79
				c0.69-2.28,0.37-3.87,1.02-6.97c0.65-3.1,0.57-3.83,0.57-3.83s-3.06,5.71-3.5,8.36c0,0-0.57-3.18,0.29-6.89
				c0.86-3.71,4.48-10.15,7.66-13.78c3.18-3.63,11.98-11,15.32-13.49c3.34-2.49,16.1-10.35,22.5-12.96
				c6.4-2.61,13.41-5.99,23.39-6.68c9.99-0.69,19.6-0.45,25.47,0.98l3.68,0.9l0.01,0c9.38,2.28,21.37,7.8,32.17,14.76
				c10.71,6.9,20.26,15.21,24.63,23.87c4.32,8.56,7.12,17.42,7.42,25.67c0.3,8.25-0.45,24.61-1.06,31.8
				c-0.61,7.19-1.89,16.28-2.12,15.9c-0.23-0.38-5.23-10.46-7.57-12.49c0,0,0.53,3.86,1.29,7.95c0.76,4.09,2.27,12.27,0.83,15.07
				c-1.44,2.8-5.38,11.13-4.62,16.66c0.76,5.53,6.21,5,8.25,4.47c2.04-0.53,2.88-0.23,1.89,1.97c-0.98,2.2-6.06,8.93-10.07,11.43
				C692.22,667.03,690.69,667.61,690.69,667.61z M656.96,747.11c0,0-8.97,8.56-16.38,8.4c-7.42-0.16-10.51-1.63-20.05-0.49
				c-9.54,1.14-16.36,0.74-22.66-5.05c-6.3-5.79-22.74-18.75-24.45-20.13c-1.71-1.39-6.68-5.71-8.8-8.64
				c-2.12-2.93-1.79-10.76-1.79-10.76s1.96,6.28,1.96,7.83c0,0,0.33-5.71,0.65-9.46c0.33-3.75,1.06-9.13,0.41-17.36
				c-0.65-8.23-1.71-16.14-1.96-17.04c0,0,1.22,0.82,2.28,4.4c1.06,3.59,2.69,6.28,2.69,6.28s0.73-9.54,1.14-11.33
				c0.41-1.79,0.73-2.44,2.77-3.26c2.04-0.82,4.24-0.9,4.24-0.9s3.83,3.91,2.53,16.38c-1.3,12.47-1.06,11.66,0,19.16
				c1.06,7.5,3.1,10.6,10.11,15.65c0,0-5.14-6.2-7.17-13.45c0,0,0.33-0.41,1.39,0.65c1.06,1.06,2.14,2.14,3,2.06
				c0.86-0.08,1.51,2.24,4.28,2.69c2.77,0.45,3.71-0.2,4.89,0.73c1.18,0.94,2.69,2.28,4.2,2.2c1.51-0.08,2.24-0.57,3.1,0.04
				c0.86,0.61,1.75,1.39,3.02,1.47c1.26,0.08,1.75-0.9,1.92-1.14c0.16-0.25,0.45,1.87,2.45,2.04c2,0.16,3.22-0.81,3.22-0.81
				s1.43,2.45,3.06,2.45c1.63,0,2.4-0.69,2.65-0.98c0.24-0.29,0.65,1.96,2.53,3.06c1.87,1.1,3.59-0.98,3.59-0.98
				s0.65,1.67,2.32,1.39c1.67-0.29,3.95-3.55,4.2-3.55c0.24,0,0.81,0.77,1.92,0.94c1.1,0.16,2.85-1.47,3.83-2.69
				c0,0,1.63,1.79,3.02,1.06c1.39-0.73,2.4-2.28,2.4-2.28s0.75,0.96,2.42,1.24c1.67,0.29,2.89-1.02,3.55-1.79
				c0,0,1.51,2.12,3.95,0.24c2.45-1.88,2.32-2.45,2.32-2.45s1.88,0.29,2.61-0.49c0,0,1.67,1.47,2.65,0.61
				c0.98-0.86,3.67-3.06,4.89-3.42c1.22-0.37,3.4-0.56,3.79-1.55c0,0-1.88,5.99-3.34,8.07c-1.47,2.08-1.75,3.46-1.96,3.87
				c-0.2,0.41,5.01-5.66,6.03-7.5c1.02-1.83,2.2-5.79,2.49-10.11c0.29-4.32,0.33-14.1-0.08-17.73c-0.41-3.63-0.29-7.25,0.16-10.52
				c0.45-3.26,0.49-4.61,2.89-4.28c2.41,0.33,5.26,1.14,5.87,3.02c0.61,1.88,0.45,6.68,0.37,9.95c-0.08,3.26-0.49,5.75-0.49,5.75
				s1.98-2.38,3.04-7.56c1.06-5.18,2.57-7.78,3.18-8.31c0,0-1.14,11.15-1.57,15.77c-0.43,4.62-0.47,9.75-0.47,13.38
				c0,3.63-0.3,6.36-0.3,6.36s-0.85-4.2-1.59-4.24c-0.74-0.04,0.3,5.45,0.38,7.95c0.08,2.5-0.45,7.34-1.14,9.16
				c0,0,3.18-3.18,3.86-6.97c0.68-3.79,0.91-5.53,1.14-5c0.23,0.53,1.11,6.88,0.08,11.06c-1.03,4.17-10.83,10.37-14.92,13.93
				C669.13,737.68,656.96,747.11,656.96,747.11z M546,579.57c0.76,1.67,2.88,5.83,3.48,11.81c0.61,5.98-0.61,10.9-1.14,13.1
				c-0.53,2.2-0.61,2.73-0.61,2.73s0.08-12.12,0.08-12.49c0-0.38-1.82,9.31-1.74,12.57c0,0-1.82-10.15-2.12-14.99
				c-0.3-4.85-1.14-18.1-1.14-18.1s2.34,10.56,2.88,13.55c0.54,2.99,1.36,5,1.36,5S547.44,587.67,546,579.57z M543.58,602.29
				c0.08,1.14,1.51,7.34,2.12,9.31c0.61,1.97,1.06,4.92,1.06,6.59C546.76,618.19,542.77,609.44,543.58,602.29z M658.95,703.82
				c-0.38,0-2.63,1.15-2.68,1.44c-0.05,0.29-0.19,6.22-0.19,6.6c0,0.38,1.34,0.14,2.2-1.58
				C659.14,708.56,659.53,706.21,658.95,703.82z M579.16,514.84c-21.52,12.06-35.05,26.9-37.99,44.51
				c-2.93,17.61-0.49,50.38,1.14,59.5c1.63,9.13,3.55,21.8,4.2,24.25c0.65,2.45,0.57,4.73,0.57,4.73s-4.97-0.57-4.97,3.1
				c0,3.67,0.82,7.01,7.34,12.55c6.52,5.54,10.35,7.99,11.17,12.47c0.81,4.48,2.04,21.85,1.39,26.33
				c-0.65,4.48-2.77,11.74-2.45,15.24c0.33,3.5,2.85,6.44,7.42,10.76c4.56,4.32,17.69,15.41,22.74,19.16
				c5.05,3.75,10.27,7.91,14.18,9.54c3.91,1.63,7.99,1.96,12.23,1.55c4.24-0.41,10.52-1.06,16.22-0.41
				c5.71,0.65,13.53,0.65,18.01-2.2c4.48-2.85,10.68-7.66,10.68-7.66s16.26-13.68,21.26-17.62c5-3.94,10.15-6.97,9.84-15.52
				c-0.3-8.56-2.95-10.53-2.5-22.41c0.45-11.89,2.57-21.28,4.47-22.49c1.89-1.21,7.34-4.7,11.13-9.62c3.79-4.92,5.3-7.88,4.77-10.3
				c-0.53-2.42-3.48-2.12-4.01-2.12c-0.53,0,1.59-14.01,2.73-21.81c1.14-7.8,3.71-37.18,3.71-39.15c0-1.97,0.83-24.38-2.88-32.33
				c-3.71-7.95-7.87-19.08-19.99-28.09c-12.12-9.01-21.5-14.61-31.58-18.63c-10.07-4.01-13.77-4.64-13.77-4.64
				C621.81,498.11,598.98,503.72,579.16,514.84z"/>
			<path class="st6" d="M546.29,558.82c0,0,26.61,33.21,84.08,56.48c0,0,6.02,32.91,44.61,33.45c0,0,24.25,3.33,30.73-20.1
				c0.16-0.59,0.31-1.17,0.45-1.75c2.61,0.71,5.39,1.27,6.15,0.7c1.53-1.15,1.15-4.97,0.96-6.49c-0.13-1.02-3.55-1.5-5.79-1.7
				c1.76-17.68-7.3-27.72-16.27-29.62c-11.9-2.52-20.84,4.84-33.75,9.56c-5.3,1.93-20.75,9.02-23.12,9.49
				c0,0-38.94-10.35-79.38-52.44l-10.55-11.26L546.29,558.82z"/>
			<path class="st12" d="M646.52,608.6c-0.07,0.08,6.75-0.58,13.66-2.77c3.68-1.17,6.41-3.12,10.29-4.85
				c11.18-4.98,17.59-3.7,21.31-2.76c0,0-11.56-0.6-22.06,6.05C659.22,610.91,646.52,608.6,646.52,608.6"/>
			<path class="st6" d="M535.66,586.4c0.01,0-56.34-35.15-80.94-53.42c-8.48-6.3-8.89-7.15-8.89-7.15s-7.83-32.55,28.02-58.92
				c34.11-25.1,88.38-42.73,104.56-23.43c0.19,0.22,5.49,7.59,3.97,5.48c0,0,12.49-10.85,43.78-11.05
				c32.24,0.07,42.95,12.35,43.5,11.58c1.25-1.73,2.56-3.85,3.8-5.46c15.6-20.18,70.57-2.46,105.01,22.88
				c35.85,26.37,28.02,58.92,28.02,58.92c-0.05,0.05-8.02,6.49-8.7,7c-24.37,18.1-81.14,53.58-81.14,53.58L708,597.12
				c5.36-18.54,3.3-33.38,3.3-33.38c-62.06,16.6-108.1,16.62-170.29,0c0,0-2.06,14.84,3.3,33.38L535.66,586.4z"/>
			<path class="st11" d="M454.44,530.13c0,0-7.79-40.56,44.96-64.05c52.75-23.49,71.29-25.13,75.82,2.47
				c2.79,17.02,2.93,51.58,15.46,74.91c6.86,12.76,20.32,24.37,35.48,23.57c5.58,0.6,26.32-5.69,35.71-24.24
				c12.72-25.12,13.91-65.51,15.23-74.24c4.18-27.66,23.08-25.96,75.82-2.47c52.75,23.49,45.39,63.41,45.39,63.41l6.33-5.01
				c0.08-18.52,0.61-50.99-78.5-79.01c-20.72-7.34-34.27-8.34-43.3-2.65c-15.11,9.52-14.13,29.16-16.26,51.64
				c-2.1,22.16-11.95,64.68-40.42,65.58c-25.95-0.82-37.18-37.45-39.26-58.48c-2.38-24.14-0.9-48.33-17.42-58.73
				c-9.02-5.68-22.59-4.68-43.3,2.65c-79.11,28.01-79.18,63.61-78.5,79.02L454.44,530.13"/>
			<path class="st12" d="M507.14,545.04c0,0,31.43,20.92,94.51,27.63c0,0-40.71-6.02-68.96-20.98
				c-28.25-14.96-50.47-43.83-50.47-43.83s0.21,3.95,10.39,16.2c0,0-14.33-10.59-17.24-20.36c0,0,1.04,9.97,14.12,25.55
				c0,0-11.84-4.99-18.28-13.09C471.2,516.17,477.43,527.6,507.14,545.04"/>
			<path class="st12" d="M741.65,545.04c0,0-31.43,20.92-94.51,27.63c0,0,40.71-6.02,68.96-20.98
				c28.25-14.96,50.47-43.83,50.47-43.83s-0.21,3.95-10.39,16.2c0,0,14.33-10.59,17.24-20.36c0,0-1.04,9.97-14.12,25.55
				c0,0,11.84-4.99,18.28-13.09C777.59,516.17,771.35,527.6,741.65,545.04"/>
			<path class="st12" d="M665.59,455.79c0,0-21.35-14.85-56.61-8.77c0,0,8.94-0.66,23.67,1.82c0,0-18.71-1.66-30.29,5.3
				c0,0,22.02-4.64,40.06,0.5c0,0-18.54-1.99-29.13,1.82c0,0,20.69-0.99,29.63,3.48c0,0-20.03-1.82-30.62,0.99
				c0,0,9.6-0.66,17.22,0.66c0,0-11.09-0.83-21.19,2.81c14.43-1.68,43.62-2.39,55.34,7.79
				C663.65,472.19,663.93,460.26,665.59,455.79"/>
			<path class="st12" d="M569.36,573.03c19.09,16.2,42.89,29.77,63.95,37.46c0,0,1.14-0.05,1.8-0.29
				c3.12-1.17,12.19-4.97,21.89-8.92c6.83-2.78,14.52-5.82,19.2-7.54c12.71-4.69,21.82-1.94,27.92,8.65c0,0-5.72-8.51-16.41-8.87
				c-9.73-0.33-53.72,17.46-53.7,17.47c2.05,1.66,2.37,2.5,1.2,1.51c-0.35-0.3-3.01-1.06-3.54-1.24
				C625.32,609.02,595.26,597.61,569.36,573.03"/>
		</g>
		<path id="SVGID_x5F_00000082358593470780599580000017813436566662883004_x5F_" class="st13" d="M956.04,813.36
			c-96.17,58.05-208.9,91.45-329.43,91.45c-120.82,0-233.79-33.56-330.12-91.87"/>
		<text>		<textPath  xlink:href="#SVGID_x5F_00000082358593470780599580000017813436566662883004_x5F_" startOffset="0%">
<tspan  class="st1" style="font-family:'AlgerianRA'; font-size:67px; letter-spacing:100;">CLOUD PIRATES</tspan>		</textPath>
</text>
	</g>
</g>
</svg>
